<?xml version="1.0" encoding="UTF-8"?><svg xmlns="http://www.w3.org/2000/svg" xmlns:xlink="http://www.w3.org/1999/xlink" height="303.5" preserveAspectRatio="xMidYMid meet" version="1.0" viewBox="46.0 60.9 333.1 303.5" width="333.1" zoomAndPan="magnify"><g><g><path d="M 220.59375 169.5 L 220.59375 175.617188 C 228.8125 176.175781 231.269531 177.625 231.269531 180.792969 C 231.269531 183.152344 230.496094 183.925781 230.238281 184.179688 C 228.640625 185.761719 224.738281 185.722656 221.601562 185.703125 L 220.34375 185.695312 L 220.34375 191.75 L 221.550781 191.753906 C 221.996094 191.757812 222.445312 191.765625 222.902344 191.765625 C 222.542969 191.726562 222.160156 191.71875 222.160156 191.71875 L 222.164062 185.796875 C 222.164062 185.796875 222.871094 185.816406 223.269531 185.800781 C 223.410156 185.78125 223.804688 185.804688 224.222656 185.832031 C 224.664062 185.855469 225.089844 185.933594 225.589844 186.015625 C 226.589844 186.242188 227.863281 186.648438 229.1875 187.605469 C 230.085938 188.269531 230.953125 189.238281 231.578125 190.433594 C 232.644531 189.964844 233.640625 189.332031 234.496094 188.476562 C 236.371094 186.617188 237.324219 184.03125 237.324219 180.792969 C 237.324219 172.390625 230.308594 170.117188 220.59375 169.5" fill="#308180"/></g><g><path d="M 222.160156 191.71875 C 222.160156 191.71875 222.636719 191.726562 223.027344 191.777344 C 223.269531 191.792969 223.355469 191.84375 223.496094 191.878906 C 223.617188 191.902344 223.828125 191.988281 224.035156 192.054688 C 224.4375 192.207031 224.847656 192.429688 225.132812 192.726562 C 225.40625 193.019531 225.605469 193.339844 225.660156 193.769531 C 225.710938 194.1875 225.664062 194.722656 225.367188 195.179688 C 225.074219 195.628906 224.640625 196.007812 223.910156 196.253906 C 223.542969 196.371094 223.105469 196.453125 222.601562 196.457031 C 221.820312 196.46875 221.03125 196.472656 220.234375 196.476562 C 218.609375 196.503906 216.9375 196.515625 215.195312 196.578125 C 214.320312 196.609375 213.425781 196.652344 212.480469 196.773438 C 211.539062 196.894531 210.539062 197.046875 209.390625 197.433594 C 208.808594 197.636719 208.175781 197.902344 207.523438 198.339844 C 206.878906 198.769531 206.222656 199.414062 205.777344 200.164062 C 204.859375 201.707031 204.875 203.195312 204.941406 204.183594 C 204.976562 204.570312 205.011719 204.957031 205.054688 205.339844 C 205.121094 205.792969 205.1875 206.246094 205.257812 206.691406 C 205.328125 207.148438 205.457031 207.550781 205.558594 207.96875 C 205.65625 208.378906 205.777344 208.78125 205.933594 209.179688 C 206.496094 210.757812 207.292969 212.203125 208.296875 213.339844 C 209.289062 214.496094 210.46875 215.300781 211.566406 215.792969 C 212.652344 216.316406 213.703125 216.457031 214.507812 216.488281 C 214.917969 216.496094 215.273438 216.476562 215.589844 216.429688 C 215.894531 216.402344 216.148438 216.347656 216.355469 216.28125 C 216.765625 216.175781 216.96875 216.101562 216.96875 216.101562 C 216.96875 216.101562 216.769531 216.019531 216.386719 215.859375 C 216.195312 215.796875 215.980469 215.671875 215.730469 215.546875 C 215.476562 215.433594 215.199219 215.269531 214.914062 215.070312 C 214.621094 214.90625 214.324219 214.648438 214.019531 214.414062 C 213.734375 214.128906 213.425781 213.855469 213.152344 213.515625 C 212.589844 212.855469 209.238281 209.367188 210.378906 205.242188 C 210.660156 204.5625 211.242188 203.28125 212.671875 203.230469 L 215.289062 203.28125 C 216.871094 203.300781 218.53125 203.371094 220.175781 203.421875 C 221.019531 203.453125 221.792969 203.460938 222.671875 203.453125 C 223.769531 203.449219 224.914062 203.285156 226.03125 202.941406 C 227.152344 202.59375 228.246094 202.035156 229.183594 201.285156 C 230.121094 200.53125 230.894531 199.589844 231.453125 198.570312 C 232.566406 196.523438 232.808594 194.183594 232.261719 192.1875 C 231.742188 190.171875 230.488281 188.566406 229.1875 187.605469 C 227.863281 186.648438 226.589844 186.242188 225.589844 186.015625 C 225.089844 185.933594 224.664062 185.855469 224.222656 185.832031 C 223.804688 185.804688 223.410156 185.78125 223.269531 185.800781 C 222.871094 185.816406 222.164062 185.796875 222.164062 185.796875 L 222.160156 191.71875" fill="#47bab5"/></g><g><path d="M 237.378906 126.527344 C 246.023438 126.527344 250.546875 120.902344 250.546875 115.34375 C 250.546875 112.625 249.472656 110.121094 247.527344 108.292969 C 245.234375 106.144531 241.824219 104.996094 237.652344 104.949219 C 234.847656 105.15625 233.070312 106.8125 232.441406 107.503906 C 232.367188 107.597656 232.296875 107.6875 232.210938 107.769531 L 232.179688 107.808594 L 232.179688 107.800781 C 231.617188 108.34375 230.738281 108.726562 229.710938 108.796875 L 227.507812 108.9375 C 224.253906 109.148438 222.09375 108.433594 221.847656 105.640625 C 221.164062 99.914062 223.59375 98.113281 227.632812 97.855469 L 230.167969 97.6875 C 237.472656 97.6875 244.777344 99.945312 244.777344 99.945312 L 244.765625 99.964844 C 247.4375 100.796875 249.777344 102.101562 251.667969 103.878906 C 254.847656 106.867188 256.601562 110.9375 256.601562 115.34375 C 256.601562 123.699219 249.867188 132.582031 237.378906 132.582031 C 212.871094 132.582031 204.175781 133.953125 204.175781 141.660156 C 204.175781 144.285156 204.777344 146.160156 206.027344 147.394531 C 208.6875 150.03125 214.285156 149.976562 219.246094 149.941406 C 219.855469 149.9375 220.453125 149.9375 221.035156 149.9375 L 221.035156 155.988281 C 220.46875 155.988281 219.886719 155.992188 219.296875 155.996094 C 218.679688 156.003906 218.050781 156.007812 217.402344 156.007812 C 211.964844 156.007812 205.738281 155.636719 201.765625 151.695312 C 199.347656 149.300781 198.121094 145.921875 198.121094 141.660156 C 198.121094 126.527344 216.3125 126.527344 237.378906 126.527344" fill="#47bab5"/></g><g><path d="M 227.597656 69.074219 C 227.597656 73.613281 223.910156 77.296875 219.375 77.296875 C 214.835938 77.296875 211.152344 73.613281 211.152344 69.074219 C 211.152344 64.535156 214.835938 60.855469 219.375 60.855469 C 223.910156 60.855469 227.597656 64.535156 227.597656 69.074219" fill="#13272e"/></g><g><path d="M 222.152344 222.03125 C 222.097656 225.078125 220.851562 227.546875 219.375 227.546875 C 217.894531 227.546875 216.652344 225.078125 216.59375 222.03125 C 215.847656 172.492188 215.09375 122.960938 214.34375 73.425781 C 214.285156 70.378906 216.546875 67.910156 219.375 67.910156 C 222.210938 67.910156 224.460938 70.378906 224.40625 73.425781 C 223.652344 122.960938 222.902344 172.492188 222.152344 222.03125" fill="#13272e"/></g><g><path d="M 289.355469 76.167969 L 231.535156 76.167969 L 231.535156 81.03125 C 231.535156 83.863281 229.238281 86.15625 226.414062 86.15625 L 212.339844 86.15625 C 209.511719 86.15625 207.214844 83.863281 207.214844 81.03125 L 207.214844 76.167969 L 149.394531 76.167969 C 145.441406 76.167969 142.242188 77.847656 142.242188 79.910156 C 142.242188 81.980469 145.441406 83.65625 149.394531 83.65625 L 194.675781 83.65625 L 196.363281 84.863281 L 159.160156 84.863281 C 155.753906 84.863281 153 86.335938 153 88.160156 C 153 89.984375 155.753906 91.460938 159.160156 91.460938 L 205.648438 91.460938 L 207.761719 92.960938 L 167.109375 92.960938 C 164.15625 92.960938 161.765625 94.21875 161.765625 95.773438 C 161.765625 97.324219 164.15625 98.585938 167.109375 98.585938 L 210.832031 98.585938 C 210.832031 100.667969 212.523438 102.359375 214.605469 102.359375 L 224.144531 102.359375 C 226.230469 102.359375 227.921875 100.667969 227.921875 98.585938 L 271.640625 98.585938 C 274.59375 98.585938 276.988281 97.324219 276.988281 95.773438 C 276.988281 94.21875 274.59375 92.960938 271.640625 92.960938 L 230.988281 92.960938 L 233.101562 91.460938 L 279.589844 91.460938 C 282.996094 91.460938 285.75 89.984375 285.75 88.160156 C 285.75 86.335938 282.996094 84.863281 279.589844 84.863281 L 242.386719 84.863281 L 244.074219 83.65625 L 289.355469 83.65625 C 293.308594 83.65625 296.511719 81.980469 296.511719 79.910156 C 296.511719 77.847656 293.308594 76.167969 289.355469 76.167969" fill="#13272e"/></g><g><path d="M 225.847656 77.296875 C 225.847656 78.453125 224.910156 79.382812 223.753906 79.382812 L 214.996094 79.382812 C 213.835938 79.382812 212.90625 78.453125 212.90625 77.296875 C 212.90625 76.136719 213.835938 75.199219 214.996094 75.199219 L 223.753906 75.199219 C 224.910156 75.199219 225.847656 76.136719 225.847656 77.296875" fill="#13272e"/></g><g><path d="M 201.371094 126.527344 C 192.726562 126.527344 188.203125 120.902344 188.203125 115.34375 C 188.203125 112.625 189.277344 110.121094 191.226562 108.292969 C 193.515625 106.144531 196.925781 104.996094 201.097656 104.949219 C 203.902344 105.15625 205.683594 106.8125 206.3125 107.503906 C 206.382812 107.597656 206.457031 107.6875 206.542969 107.769531 L 206.566406 107.808594 L 206.566406 107.800781 C 207.132812 108.34375 208.011719 108.726562 209.039062 108.796875 L 211.242188 108.9375 C 214.503906 109.148438 216.65625 108.433594 216.902344 105.640625 C 217.585938 99.914062 215.15625 98.113281 211.117188 97.855469 L 208.589844 97.6875 C 201.277344 97.6875 193.96875 99.945312 193.96875 99.945312 L 193.984375 99.964844 C 191.316406 100.796875 188.976562 102.101562 187.082031 103.878906 C 183.898438 106.867188 182.144531 110.9375 182.144531 115.34375 C 182.144531 123.699219 188.890625 132.582031 201.371094 132.582031 C 225.878906 132.582031 234.574219 133.953125 234.574219 141.660156 C 234.574219 144.285156 233.96875 146.160156 232.722656 147.394531 C 230.066406 150.03125 224.460938 149.976562 219.503906 149.941406 C 219.136719 149.941406 218.789062 149.941406 218.429688 149.9375 L 218.34375 149.9375 C 218.140625 149.9375 217.921875 149.9375 217.71875 149.9375 L 217.71875 149.949219 C 213.632812 150.074219 209.796875 151.304688 207.332031 153.625 C 204.910156 155.890625 203.582031 158.980469 203.582031 162.328125 C 203.582031 168.34375 207.335938 174.71875 215.890625 175.277344 L 215.792969 169.113281 C 210.929688 168.628906 209.636719 165.421875 209.636719 162.328125 C 209.636719 160.671875 210.148438 158.972656 211.472656 158.035156 C 214.269531 156.0625 215.859375 155.992188 218.507812 155.992188 C 218.820312 155.992188 219.128906 155.992188 219.449219 155.996094 C 220.0625 156.003906 220.703125 156.007812 221.347656 156.007812 C 226.789062 156.007812 233.011719 155.636719 236.988281 151.695312 C 239.402344 149.300781 240.625 145.921875 240.625 141.660156 C 240.625 126.527344 222.441406 126.527344 201.371094 126.527344" fill="#308180"/></g><g><path d="M 215.917969 191.496094 C 215.917969 191.496094 216.316406 191.441406 215.917969 191.496094 C 215.664062 191.511719 215.578125 191.5625 215.433594 191.601562 C 215.304688 191.625 215.089844 191.71875 214.875 191.78125 C 214.464844 191.9375 214.035156 192.164062 213.746094 192.472656 C 213.464844 192.773438 213.257812 193.105469 213.203125 193.546875 C 213.15625 193.980469 213.199219 194.527344 213.5 195 C 213.800781 195.460938 214.253906 195.851562 215.003906 196.109375 C 215.378906 196.226562 215.835938 196.308594 216.351562 196.316406 C 217.160156 196.324219 217.972656 196.332031 218.796875 196.335938 C 220.46875 196.363281 222.1875 196.375 223.984375 196.441406 C 224.878906 196.476562 225.804688 196.515625 226.78125 196.640625 C 227.746094 196.765625 228.78125 196.921875 229.964844 197.320312 C 230.566406 197.527344 231.214844 197.804688 231.882812 198.257812 C 232.546875 198.699219 233.226562 199.363281 233.6875 200.136719 C 234.625 201.726562 234.613281 203.261719 234.542969 204.277344 C 234.511719 204.675781 234.472656 205.070312 234.441406 205.464844 C 234.363281 205.9375 234.289062 206.402344 234.214844 206.859375 C 234.148438 207.328125 234.023438 207.746094 233.910156 208.175781 C 233.808594 208.597656 233.691406 209.015625 233.523438 209.421875 C 232.945312 211.050781 232.125 212.535156 231.085938 213.710938 C 230.066406 214.894531 228.855469 215.726562 227.722656 216.234375 C 226.601562 216.773438 225.527344 216.917969 224.691406 216.949219 C 224.265625 216.964844 223.902344 216.941406 223.585938 216.894531 C 223.265625 216.863281 223 216.804688 222.789062 216.742188 C 222.367188 216.632812 222.160156 216.554688 222.160156 216.554688 C 222.160156 216.554688 222.367188 216.46875 222.757812 216.308594 C 222.949219 216.238281 223.175781 216.109375 223.433594 215.984375 C 223.695312 215.863281 223.976562 215.699219 224.273438 215.492188 C 224.578125 215.316406 224.875 215.058594 225.195312 214.816406 C 225.492188 214.523438 225.804688 214.242188 226.09375 213.890625 C 226.671875 213.207031 230.121094 209.613281 228.949219 205.367188 C 228.660156 204.664062 228.058594 203.347656 226.582031 203.289062 L 223.886719 203.347656 C 222.257812 203.367188 220.550781 203.4375 218.851562 203.488281 C 217.988281 203.523438 217.1875 203.527344 216.28125 203.523438 C 215.148438 203.519531 213.96875 203.355469 212.816406 202.996094 C 211.664062 202.636719 210.539062 202.066406 209.566406 201.292969 C 208.605469 200.515625 207.808594 199.542969 207.234375 198.488281 C 206.089844 196.386719 205.835938 193.972656 206.402344 191.914062 C 206.933594 189.839844 208.226562 188.1875 209.566406 187.199219 C 210.925781 186.207031 212.246094 185.789062 213.273438 185.558594 C 213.792969 185.476562 214.226562 185.394531 214.683594 185.371094 C 215.117188 185.339844 215.515625 185.316406 215.667969 185.335938 C 216.074219 185.355469 216.042969 185.328125 216.042969 185.328125 L 215.917969 191.496094" fill="#308180"/></g><g><path d="M 227.507812 108.9375 L 229.710938 108.796875 C 230.738281 108.726562 231.617188 108.34375 232.179688 107.800781 L 232.179688 107.808594 L 232.210938 107.769531 C 232.296875 107.6875 232.367188 107.597656 232.441406 107.503906 C 233.070312 106.8125 234.847656 105.15625 237.652344 104.949219 L 237.800781 104.957031 L 240.261719 98.828125 C 237.953125 98.445312 232.828125 97.6875 230.167969 97.6875 L 227.632812 97.855469 C 223.59375 98.113281 221.164062 99.914062 221.847656 105.640625 C 222.09375 108.433594 224.253906 109.148438 227.507812 108.9375" fill="#47bab5"/></g><g><path d="M 233.054688 154.292969 C 229.765625 155.386719 226.371094 156.007812 222.945312 156.007812 C 222.679688 156.007812 222.433594 156.007812 222.175781 156.003906 C 224.761719 156.074219 226.863281 156.789062 228.261719 158.101562 C 229.445312 159.210938 230.09375 160.734375 230.09375 162.394531 C 230.09375 165.734375 227.484375 169.335938 221.757812 169.335938 L 221.519531 169.335938 L 221.519531 175.386719 L 221.757812 175.386719 C 231.105469 175.386719 236.148438 168.691406 236.148438 162.394531 C 236.148438 159.546875 234.832031 156.421875 233.054688 154.292969" fill="#47bab5"/></g><g><path d="M 221.945312 169.332031 C 210.789062 169.707031 203.347656 171.65625 203.347656 180.855469 C 203.347656 184.09375 204.296875 186.679688 206.167969 188.539062 C 209.207031 191.550781 212.152344 191.765625 216.140625 191.765625 L 216.042969 185.328125 C 212.90625 185.347656 212.03125 185.824219 210.4375 184.238281 C 210.179688 183.988281 209.398438 183.21875 209.398438 180.855469 C 209.398438 177.351562 212.402344 175.804688 222.914062 175.386719" fill="#47bab5"/></g><g><path d="M 228.457031 101.1875 C 228.457031 101.789062 227.972656 102.277344 227.363281 102.277344 C 226.761719 102.277344 226.273438 101.789062 226.273438 101.1875 C 226.273438 100.585938 226.761719 100.09375 227.363281 100.09375 C 227.972656 100.09375 228.457031 100.585938 228.457031 101.1875" fill="#fff"/></g><g><path d="M 212.476562 101.1875 C 212.476562 101.789062 211.988281 102.277344 211.386719 102.277344 C 210.78125 102.277344 210.292969 101.789062 210.292969 101.1875 C 210.292969 100.585938 210.78125 100.09375 211.386719 100.09375 C 211.988281 100.09375 212.476562 100.585938 212.476562 101.1875" fill="#fff"/></g><g><path d="M 279.746094 136.527344 C 279.746094 130.03125 274.480469 124.773438 267.992188 124.773438 L 267.453125 124.773438 C 260.960938 124.773438 255.699219 130.03125 255.699219 136.527344 L 255.699219 220.761719 C 255.699219 222.035156 255.90625 223.25 256.28125 224.398438 L 256.277344 224.398438 L 256.285156 224.425781 C 256.664062 225.566406 257.214844 226.628906 257.898438 227.585938 C 262.003906 236.273438 262.453125 242.742188 262.453125 242.742188 L 262.453125 248.449219 C 262.453125 251.296875 264.757812 253.605469 267.601562 253.605469 L 267.84375 253.605469 C 270.6875 253.605469 272.988281 251.296875 272.988281 248.449219 L 272.988281 242.742188 C 272.988281 242.742188 273.441406 236.273438 277.546875 227.585938 C 278.230469 226.628906 278.78125 225.566406 279.152344 224.425781 L 279.167969 224.398438 L 279.164062 224.398438 C 279.539062 223.25 279.746094 222.035156 279.746094 220.761719 L 279.746094 136.527344" fill="#cfd2d5"/></g><g><path d="M 276.925781 210.417969 C 276.925781 211.039062 276.578125 211.542969 276.148438 211.542969 L 259.296875 211.542969 C 258.867188 211.542969 258.519531 211.039062 258.519531 210.417969 C 258.519531 209.796875 258.867188 209.289062 259.296875 209.289062 L 276.148438 209.289062 C 276.578125 209.289062 276.925781 209.796875 276.925781 210.417969" fill="#a2a3aa"/></g><g><path d="M 276.925781 210.417969 C 276.925781 211.039062 276.578125 211.542969 276.148438 211.542969 L 259.296875 211.542969 C 258.867188 211.542969 258.519531 211.039062 258.519531 210.417969 C 258.519531 209.796875 258.867188 209.289062 259.296875 209.289062 L 276.148438 209.289062 C 276.578125 209.289062 276.925781 209.796875 276.925781 210.417969" fill="#a2a3aa"/></g><g><path d="M 276.925781 150.222656 C 276.925781 150.847656 276.578125 151.351562 276.148438 151.351562 L 259.296875 151.351562 C 258.867188 151.351562 258.519531 150.847656 258.519531 150.222656 C 258.519531 149.601562 258.867188 149.101562 259.296875 149.101562 L 276.148438 149.101562 C 276.578125 149.101562 276.925781 149.601562 276.925781 150.222656" fill="#a2a3aa"/></g><g><path d="M 274.707031 157.765625 C 274.707031 158.386719 274.441406 158.886719 274.117188 158.886719 L 261.328125 158.886719 C 261.003906 158.886719 260.738281 158.386719 260.738281 157.765625 C 260.738281 157.144531 261.003906 156.644531 261.328125 156.644531 L 274.117188 156.644531 C 274.441406 156.644531 274.707031 157.144531 274.707031 157.765625" fill="#a2a3aa"/></g><g><path d="M 276.925781 165.304688 C 276.925781 165.929688 276.578125 166.433594 276.148438 166.433594 L 259.296875 166.433594 C 258.867188 166.433594 258.519531 165.929688 258.519531 165.304688 C 258.519531 164.6875 258.867188 164.183594 259.296875 164.183594 L 276.148438 164.183594 C 276.578125 164.183594 276.925781 164.6875 276.925781 165.304688" fill="#a2a3aa"/></g><g><path d="M 274.707031 172.847656 C 274.707031 173.472656 274.441406 173.976562 274.117188 173.976562 L 261.328125 173.976562 C 261.003906 173.976562 260.738281 173.472656 260.738281 172.847656 C 260.738281 172.226562 261.003906 171.722656 261.328125 171.722656 L 274.117188 171.722656 C 274.441406 171.722656 274.707031 172.226562 274.707031 172.847656" fill="#a2a3aa"/></g><g><path d="M 276.925781 180.320312 C 276.925781 180.9375 276.578125 181.445312 276.148438 181.445312 L 259.296875 181.445312 C 258.867188 181.445312 258.519531 180.9375 258.519531 180.320312 C 258.519531 179.695312 258.867188 179.195312 259.296875 179.195312 L 276.148438 179.195312 C 276.578125 179.195312 276.925781 179.695312 276.925781 180.320312" fill="#a2a3aa"/></g><g><path d="M 274.707031 187.859375 C 274.707031 188.480469 274.441406 188.988281 274.117188 188.988281 L 261.328125 188.988281 C 261.003906 188.988281 260.738281 188.480469 260.738281 187.859375 C 260.738281 187.238281 261.003906 186.734375 261.328125 186.734375 L 274.117188 186.734375 C 274.441406 186.734375 274.707031 187.238281 274.707031 187.859375" fill="#a2a3aa"/></g><g><path d="M 276.925781 195.40625 C 276.925781 196.027344 276.578125 196.53125 276.148438 196.53125 L 259.296875 196.53125 C 258.867188 196.53125 258.519531 196.027344 258.519531 195.40625 C 258.519531 194.78125 258.867188 194.277344 259.296875 194.277344 L 276.148438 194.277344 C 276.578125 194.277344 276.925781 194.78125 276.925781 195.40625" fill="#a2a3aa"/></g><g><path d="M 274.707031 202.941406 C 274.707031 203.566406 274.441406 204.066406 274.117188 204.066406 L 261.328125 204.066406 C 261.003906 204.066406 260.738281 203.566406 260.738281 202.941406 C 260.738281 202.324219 261.003906 201.824219 261.328125 201.824219 L 274.117188 201.824219 C 274.441406 201.824219 274.707031 202.324219 274.707031 202.941406" fill="#a2a3aa"/></g><g><path d="M 274.707031 217.957031 C 274.707031 218.578125 274.441406 219.082031 274.117188 219.082031 L 261.328125 219.082031 C 261.003906 219.082031 260.738281 218.578125 260.738281 217.957031 C 260.738281 217.332031 261.003906 216.832031 261.328125 216.832031 L 274.117188 216.832031 C 274.441406 216.832031 274.707031 217.332031 274.707031 217.957031" fill="#a2a3aa"/></g><g><path d="M 269.839844 251.492188 C 269.839844 252.65625 268.890625 253.605469 267.722656 253.605469 C 266.554688 253.605469 265.605469 252.65625 265.605469 251.492188 L 265.605469 136.636719 C 265.605469 135.46875 266.554688 134.519531 267.722656 134.519531 C 268.890625 134.519531 269.839844 135.46875 269.839844 136.636719 L 269.839844 251.492188" fill="#a2a3aa"/></g><g><path d="M 265.605469 166.433594 L 265.605469 251.492188 C 265.605469 252.65625 266.554688 253.605469 267.722656 253.605469 C 268.890625 253.605469 269.839844 252.65625 269.839844 251.492188 L 269.839844 166.433594 L 265.605469 166.433594" fill="#e84944"/></g><g><path d="M 274.707031 137.21875 C 274.707031 141.074219 271.578125 144.199219 267.722656 144.199219 C 263.863281 144.199219 260.738281 141.074219 260.738281 137.21875 C 260.738281 133.359375 263.863281 130.234375 267.722656 130.234375 C 271.578125 130.234375 274.707031 133.359375 274.707031 137.21875" fill="#acaeb5"/></g><g><path d="M 276.925781 165.234375 C 276.925781 165.859375 276.578125 166.363281 276.148438 166.363281 L 259.296875 166.363281 C 258.867188 166.363281 258.519531 165.859375 258.519531 165.234375 C 258.519531 164.613281 258.867188 164.109375 259.296875 164.109375 L 276.148438 164.109375 C 276.578125 164.109375 276.925781 164.613281 276.925781 165.234375" fill="#a2a3aa"/></g><g><path d="M 377.472656 153.117188 L 379.167969 148.691406 L 335.140625 192.71875 L 336.507812 194.078125 L 377.472656 153.117188" fill="#adb1b6"/></g><g><path d="M 305.371094 241.097656 C 305.628906 240.90625 305.886719 240.699219 306.121094 240.460938 L 345.707031 200.875 C 348.050781 198.535156 348.328125 195.015625 346.328125 193.019531 L 336.203125 182.894531 C 334.210938 180.894531 330.6875 181.171875 328.34375 183.511719 L 288.761719 223.105469 C 288.523438 223.335938 288.320312 223.597656 288.128906 223.855469 L 305.371094 241.097656" fill="#9b9ba2"/></g><g><path d="M 318.921875 200.140625 L 318.273438 200.785156 L 328.4375 210.949219 L 329.082031 210.304688 L 331.007812 212.226562 L 332.296875 210.941406 L 318.28125 196.925781 L 316.996094 198.214844 L 318.921875 200.140625" fill="#213c47"/></g><g><path d="M 332.296875 210.941406 L 342.027344 201.203125 C 344.132812 199.101562 344.535156 196.089844 342.921875 194.476562 L 334.75 186.300781 C 333.136719 184.6875 330.121094 185.089844 328.019531 187.195312 L 318.28125 196.925781 L 332.296875 210.941406" fill="#e84944"/></g><g><path d="M 338.386719 185.074219 L 344.144531 190.832031 C 344.644531 191.332031 345.519531 191.261719 346.097656 190.679688 C 346.679688 190.097656 346.75 189.226562 346.253906 188.726562 L 345.511719 187.988281 L 347.082031 186.417969 C 347.546875 185.949219 347.601562 185.253906 347.203125 184.855469 L 344.367188 182.019531 C 343.96875 181.621094 343.273438 181.675781 342.804688 182.144531 L 341.238281 183.710938 L 340.496094 182.972656 C 339.996094 182.472656 339.128906 182.539062 338.542969 183.121094 C 337.964844 183.703125 337.890625 184.578125 338.386719 185.074219" fill="#213c47"/></g><g><path d="M 272.871094 252.269531 L 276.953125 256.351562 L 325.398438 207.898438 L 321.316406 203.824219 L 272.871094 252.269531" fill="#484c50"/></g><g><path d="M 341.800781 201.433594 L 333.933594 193.566406 C 333.6875 193.328125 333.726562 192.894531 334.007812 192.613281 C 334.292969 192.324219 334.71875 192.296875 334.964844 192.539062 L 342.828125 200.40625 L 341.800781 201.433594" fill="#d3d7d9"/></g><g><path d="M 339.59375 203.640625 L 334.683594 198.734375 C 334.5 198.550781 334.574219 198.171875 334.863281 197.886719 C 335.148438 197.601562 335.527344 197.519531 335.714844 197.707031 L 340.621094 202.613281 L 339.59375 203.640625" fill="#d3d7d9"/></g><g><path d="M 337.378906 205.855469 L 329.511719 197.988281 C 329.269531 197.746094 329.304688 197.316406 329.585938 197.035156 C 329.871094 196.746094 330.300781 196.71875 330.542969 196.957031 L 338.410156 204.824219 L 337.378906 205.855469" fill="#d3d7d9"/></g><g><path d="M 335.167969 208.066406 L 330.261719 203.160156 C 330.074219 202.972656 330.152344 202.59375 330.441406 202.3125 C 330.726562 202.023438 331.105469 201.945312 331.289062 202.128906 L 336.199219 207.035156 L 335.167969 208.066406" fill="#d3d7d9"/></g><g><path d="M 332.957031 210.277344 L 325.089844 202.410156 C 324.847656 202.167969 324.878906 201.742188 325.164062 201.453125 C 325.449219 201.171875 325.878906 201.136719 326.121094 201.382812 L 333.988281 209.246094 L 332.957031 210.277344" fill="#d3d7d9"/></g><g><path d="M 330.746094 212.488281 L 325.839844 207.582031 C 325.652344 207.398438 325.734375 207.015625 326.019531 206.730469 C 326.304688 206.449219 326.683594 206.367188 326.867188 206.550781 L 331.773438 211.460938 L 330.746094 212.488281" fill="#d3d7d9"/></g><g><path d="M 328.535156 214.695312 L 320.671875 206.832031 C 320.425781 206.589844 320.457031 206.160156 320.742188 205.878906 C 321.027344 205.59375 321.457031 205.558594 321.699219 205.804688 L 329.566406 213.664062 L 328.535156 214.695312" fill="#d3d7d9"/></g><g><path d="M 326.324219 216.910156 L 321.417969 212.003906 C 321.234375 211.820312 321.3125 211.4375 321.597656 211.152344 C 321.878906 210.867188 322.261719 210.785156 322.445312 210.972656 L 327.355469 215.882812 L 326.324219 216.910156" fill="#d3d7d9"/></g><g><path d="M 324.113281 219.125 L 316.25 211.253906 C 316.003906 211.011719 316.035156 210.582031 316.320312 210.300781 C 316.605469 210.019531 317.03125 209.980469 317.273438 210.230469 L 325.140625 218.097656 L 324.113281 219.125" fill="#d3d7d9"/></g><g><path d="M 321.902344 221.332031 L 316.996094 216.425781 C 316.8125 216.238281 316.890625 215.859375 317.175781 215.570312 C 317.460938 215.289062 317.839844 215.214844 318.023438 215.398438 L 322.929688 220.300781 L 321.902344 221.332031" fill="#d3d7d9"/></g><g><path d="M 319.6875 223.542969 L 311.824219 215.679688 C 311.578125 215.433594 311.617188 215.003906 311.898438 214.726562 C 312.1875 214.4375 312.609375 214.40625 312.855469 214.648438 L 320.722656 222.515625 L 319.6875 223.542969" fill="#d3d7d9"/></g><g><path d="M 317.480469 225.753906 L 312.574219 220.84375 C 312.390625 220.660156 312.46875 220.277344 312.75 219.996094 C 313.039062 219.714844 313.417969 219.628906 313.605469 219.816406 L 318.511719 224.726562 L 317.480469 225.753906" fill="#d3d7d9"/></g><g><path d="M 315.269531 227.964844 L 307.402344 220.101562 C 307.15625 219.855469 307.195312 219.425781 307.476562 219.144531 C 307.761719 218.855469 308.1875 218.824219 308.433594 219.074219 L 316.300781 226.9375 L 315.269531 227.964844" fill="#d3d7d9"/></g><g><path d="M 313.058594 230.171875 L 308.152344 225.269531 C 307.964844 225.085938 308.046875 224.699219 308.332031 224.417969 C 308.613281 224.136719 308.996094 224.054688 309.179688 224.238281 L 314.089844 229.144531 L 313.058594 230.171875" fill="#d3d7d9"/></g><g><path d="M 310.847656 232.390625 L 302.980469 224.519531 C 302.738281 224.277344 302.769531 223.851562 303.054688 223.566406 C 303.335938 223.28125 303.765625 223.25 304.011719 223.492188 L 311.878906 231.355469 L 310.847656 232.390625" fill="#d3d7d9"/></g><g><path d="M 308.636719 234.597656 L 303.730469 229.691406 C 303.542969 229.503906 303.625 229.125 303.910156 228.835938 C 304.191406 228.558594 304.574219 228.476562 304.761719 228.664062 L 309.667969 233.566406 L 308.636719 234.597656" fill="#d3d7d9"/></g><g><path d="M 306.425781 236.808594 L 298.5625 228.945312 C 298.316406 228.699219 298.351562 228.273438 298.632812 227.984375 C 298.917969 227.703125 299.347656 227.667969 299.589844 227.914062 L 307.457031 235.777344 L 306.425781 236.808594" fill="#d3d7d9"/></g><g><path d="M 283.738281 221.390625 C 284.269531 220.863281 285.726562 221.453125 286.988281 222.71875 L 306.507812 242.238281 C 307.769531 243.5 308.359375 244.949219 307.828125 245.484375 C 307.296875 246.015625 305.847656 245.425781 304.582031 244.160156 L 285.0625 224.644531 C 283.800781 223.382812 283.203125 221.925781 283.738281 221.390625" fill="#9b9ba2"/></g><g><path d="M 265.941406 246.761719 L 282.460938 263.28125 C 282.914062 263.730469 283.644531 263.734375 284.09375 263.28125 C 284.546875 262.828125 284.546875 262.097656 284.09375 261.648438 L 277.929688 255.484375 L 279.183594 254.230469 L 274.996094 250.035156 L 273.742188 251.296875 L 267.574219 245.128906 C 267.125 244.679688 266.394531 244.679688 265.945312 245.128906 C 265.492188 245.582031 265.492188 246.308594 265.941406 246.761719" fill="#213c47"/></g><g><path d="M 270.574219 226.160156 C 268.824219 230.488281 271.671875 235.722656 276.933594 237.851562 L 277.148438 237.9375 L 277.367188 238.027344 C 282.632812 240.152344 288.316406 238.367188 290.066406 234.035156 L 312.769531 177.855469 C 313.113281 177.007812 323.257812 136.144531 323.257812 136.144531 L 324.800781 132.332031 C 325.566406 130.4375 324.320312 128.144531 322.015625 127.214844 L 321.917969 127.171875 L 321.820312 127.136719 C 319.515625 126.203125 317.027344 126.984375 316.257812 128.882812 L 314.71875 132.691406 C 314.71875 132.691406 293.328125 169.855469 293.28125 169.976562 L 270.574219 226.160156" fill="#cfd2d5"/></g><g><path d="M 283.171875 223.039062 C 286.660156 224.453125 290.632812 222.769531 292.042969 219.277344 C 293.453125 215.789062 291.765625 211.820312 288.277344 210.40625 C 284.789062 208.996094 280.820312 210.683594 279.40625 214.175781 C 277.996094 217.664062 279.683594 221.632812 283.171875 223.039062" fill="#060709"/></g><g><path d="M 283.40625 222.464844 C 286.574219 223.742188 290.183594 222.214844 291.460938 219.046875 C 292.742188 215.878906 291.210938 212.269531 288.042969 210.984375 C 284.878906 209.707031 281.265625 211.234375 279.984375 214.402344 C 278.707031 217.574219 280.238281 221.179688 283.40625 222.464844" fill="#213c47"/></g><g><path d="M 282.09375 214.394531 L 285.285156 215.6875 L 286.574219 212.496094 L 288.050781 213.09375 L 286.761719 216.285156 L 289.953125 217.574219 L 289.355469 219.058594 L 286.164062 217.765625 L 284.875 220.953125 L 283.398438 220.355469 L 284.6875 217.167969 L 281.492188 215.878906 L 282.09375 214.394531" fill="#fff"/></g><g><path d="M 272.589844 221.179688 L 270.574219 226.160156 C 268.824219 230.488281 271.671875 235.722656 276.933594 237.851562 L 277.367188 238.027344 C 282.632812 240.152344 288.316406 238.367188 290.066406 234.035156 L 292.078125 229.054688 L 272.589844 221.179688" fill="#213c47"/></g><g><path d="M 323.308594 136.019531 L 324.800781 132.332031 C 325.566406 130.4375 324.320312 128.144531 322.015625 127.214844 L 321.820312 127.136719 C 319.515625 126.203125 317.027344 126.984375 316.257812 128.882812 L 314.769531 132.566406 L 323.308594 136.019531" fill="#213c47"/></g><g><path d="M 291.757812 189.1875 L 300.515625 192.726562 L 294.484375 207.648438 L 285.730469 204.105469 L 291.757812 189.1875" fill="#213c47"/></g><g><path d="M 291.886719 190.050781 L 299.824219 193.261719 L 294.355469 206.785156 L 286.421875 203.578125 L 291.886719 190.050781" fill="#060709"/></g><g><path d="M 292.359375 190.929688 L 298.875 193.5625 L 293.886719 205.90625 L 287.371094 203.273438 L 292.359375 190.929688" fill="#9b9ba2"/></g><g><path d="M 219.898438 259.484375 L 99.886719 304.152344 L 46.03125 159.449219 L 166.046875 114.785156 L 219.898438 259.484375" fill="#47bab5"/></g><g><path d="M 204.640625 250.871094 L 105.800781 287.65625 L 61.453125 168.496094 L 160.289062 131.707031 L 204.640625 250.871094" fill="#fff"/></g><g><path d="M 100.65625 139.003906 C 99.507812 135.914062 101.074219 132.484375 104.167969 131.335938 C 107.253906 130.1875 110.6875 131.753906 111.835938 134.84375 C 112.1875 135.785156 112.257812 136.757812 112.136719 137.695312 L 102.292969 141.359375 C 101.582031 140.730469 101.007812 139.949219 100.65625 139.003906 Z M 141.3125 134.851562 L 135.558594 136.996094 C 134.003906 133.109375 131.230469 130.585938 129.238281 131.324219 L 115.371094 136.488281 C 115.328125 135.5625 115.1875 134.640625 114.847656 133.726562 C 113.078125 128.976562 107.796875 126.554688 103.046875 128.320312 C 98.296875 130.09375 95.871094 135.378906 97.640625 140.125 C 97.980469 141.039062 98.484375 141.832031 99.058594 142.558594 L 84.695312 147.90625 C 82.707031 148.644531 82.261719 152.367188 83.625 156.320312 L 77.867188 158.46875 C 75.035156 159.523438 74.402344 164.824219 76.34375 170.457031 L 150.3125 142.929688 C 148.089844 137.402344 144.144531 133.800781 141.3125 134.851562" fill="#13272e"/></g><g><path d="M 127.941406 171.230469 L 121.011719 173.8125 L 123.589844 180.738281 L 121.277344 181.601562 L 118.699219 174.671875 L 111.765625 177.25 L 110.90625 174.9375 L 117.839844 172.359375 L 115.261719 165.429688 L 117.570312 164.566406 L 120.152344 171.496094 L 127.082031 168.914062 Z M 114.59375 160.097656 C 107.425781 162.769531 103.777344 170.746094 106.441406 177.917969 C 109.109375 185.082031 117.085938 188.730469 124.253906 186.0625 C 131.421875 183.390625 135.070312 175.421875 132.40625 168.253906 C 129.734375 161.082031 121.757812 157.433594 114.59375 160.097656" fill="#47bab5"/></g><g><path d="M 148.472656 182.460938 L 103.574219 199.171875 L 103.097656 197.894531 L 147.996094 181.1875 L 148.472656 182.460938" fill="#b8bbc1"/></g><g><path d="M 149.425781 185.015625 L 104.523438 201.730469 L 104.050781 200.445312 L 148.949219 183.734375 L 149.425781 185.015625" fill="#b8bbc1"/></g><g><path d="M 150.375 187.566406 L 105.476562 204.277344 L 105 203 L 149.898438 186.285156 L 150.375 187.566406" fill="#b8bbc1"/></g><g><path d="M 173.898438 184.625 L 85.757812 217.433594 L 85.28125 216.15625 L 173.421875 183.347656 L 173.898438 184.625" fill="#b8bbc1"/></g><g><path d="M 174.847656 187.179688 L 86.703125 219.988281 L 86.230469 218.710938 L 174.371094 185.90625 L 174.847656 187.179688" fill="#b8bbc1"/></g><g><path d="M 175.796875 189.730469 L 87.65625 222.539062 L 87.179688 221.265625 L 175.320312 188.457031 L 175.796875 189.730469" fill="#b8bbc1"/></g><g><path d="M 176.746094 192.285156 L 88.605469 225.09375 L 88.132812 223.816406 L 176.273438 191.011719 L 176.746094 192.285156" fill="#b8bbc1"/></g><g><path d="M 177.699219 194.84375 L 89.554688 227.644531 L 89.082031 226.367188 L 177.222656 193.5625 L 177.699219 194.84375" fill="#b8bbc1"/></g><g><path d="M 178.648438 197.394531 L 90.507812 230.199219 L 90.03125 228.921875 L 178.171875 196.113281 L 178.648438 197.394531" fill="#b8bbc1"/></g><g><path d="M 179.601562 199.949219 L 91.457031 232.753906 L 90.980469 231.480469 L 179.121094 198.671875 L 179.601562 199.949219" fill="#b8bbc1"/></g><g><path d="M 181.496094 205.054688 L 137.277344 221.511719 L 136.800781 220.238281 L 181.023438 203.773438 L 181.496094 205.054688" fill="#b8bbc1"/></g><g><path d="M 182.449219 207.605469 L 138.230469 224.0625 L 137.753906 222.789062 L 181.972656 206.328125 L 182.449219 207.605469" fill="#b8bbc1"/></g><g><path d="M 183.398438 210.160156 L 139.175781 226.617188 L 138.703125 225.34375 L 182.925781 208.886719 L 183.398438 210.160156" fill="#b8bbc1"/></g><g><path d="M 184.351562 212.714844 L 140.128906 229.175781 L 139.65625 227.894531 L 183.875 211.4375 L 184.351562 212.714844" fill="#b8bbc1"/></g><g><path d="M 185.300781 215.265625 L 141.078125 231.726562 L 140.605469 230.445312 L 184.824219 213.988281 L 185.300781 215.265625" fill="#b8bbc1"/></g><g><path d="M 186.25 217.820312 L 142.03125 234.28125 L 141.554688 233.003906 L 185.777344 216.546875 L 186.25 217.820312" fill="#b8bbc1"/></g><g><path d="M 187.199219 220.371094 L 142.980469 236.828125 L 142.503906 235.558594 L 186.726562 219.097656 L 187.199219 220.371094" fill="#b8bbc1"/></g><g><path d="M 188.152344 222.929688 L 143.929688 239.386719 L 143.453125 238.109375 L 187.675781 221.648438 L 188.152344 222.929688" fill="#b8bbc1"/></g><g><path d="M 190.160156 228.320312 L 145.9375 244.777344 L 145.460938 243.5 L 189.683594 227.046875 L 190.160156 228.320312" fill="#b8bbc1"/></g><g><path d="M 191.105469 230.875 L 146.886719 247.328125 L 146.414062 246.058594 L 190.632812 229.601562 L 191.105469 230.875" fill="#b8bbc1"/></g><g><path d="M 192.058594 233.425781 L 147.839844 249.886719 L 147.363281 248.609375 L 191.585938 232.152344 L 192.058594 233.425781" fill="#b8bbc1"/></g><g><path d="M 193.007812 235.980469 L 148.789062 252.441406 L 148.3125 251.160156 L 192.535156 234.703125 L 193.007812 235.980469" fill="#b8bbc1"/></g><g><path d="M 193.960938 238.53125 L 149.738281 254.992188 L 149.261719 253.714844 L 193.484375 237.261719 L 193.960938 238.53125" fill="#b8bbc1"/></g><g><path d="M 194.910156 241.085938 L 150.691406 257.546875 L 150.214844 256.273438 L 194.4375 239.808594 L 194.910156 241.085938" fill="#b8bbc1"/></g><g><path d="M 195.859375 243.640625 L 151.636719 260.101562 L 151.164062 258.820312 L 195.382812 242.363281 L 195.859375 243.640625" fill="#b8bbc1"/></g><g><path d="M 196.8125 246.191406 L 152.589844 262.652344 L 152.113281 261.378906 L 196.339844 244.917969 L 196.8125 246.191406" fill="#b8bbc1"/></g><g><path d="M 100.011719 255.730469 L 141.832031 240.167969 L 134.703125 221.019531 L 92.882812 236.578125 L 100.011719 255.730469" fill="#b8bbc1"/></g><g><path d="M 108.671875 279 L 150.488281 263.433594 L 143.363281 244.285156 L 101.542969 259.847656 L 108.671875 279" fill="#b8bbc1"/></g><g><path d="M 173.851562 227.734375 L 173.851562 218.539062 C 173.851562 209.40625 181.445312 202.007812 190.824219 202.007812 L 223.734375 202.007812 C 233.113281 202.007812 240.710938 209.40625 240.710938 218.539062 L 240.710938 227.734375 L 247.363281 227.734375 L 247.363281 215.984375 C 247.363281 204.746094 238.25 195.640625 227.011719 195.640625 L 187.550781 195.640625 C 176.3125 195.640625 167.203125 204.746094 167.203125 215.984375 L 167.203125 227.734375 L 173.851562 227.734375" fill="#213c47"/></g><g><path d="M 179.722656 225.070312 C 179.722656 227.222656 177.972656 228.96875 175.820312 228.96875 L 164.519531 228.96875 C 162.367188 228.96875 160.617188 227.222656 160.617188 225.070312 C 160.617188 222.914062 162.367188 221.167969 164.519531 221.167969 L 175.820312 221.167969 C 177.972656 221.167969 179.722656 222.914062 179.722656 225.070312" fill="#13272e"/></g><g><path d="M 253.789062 225.289062 C 253.789062 227.4375 252.039062 229.183594 249.886719 229.183594 L 238.589844 229.183594 C 236.433594 229.183594 234.6875 227.4375 234.6875 225.289062 C 234.6875 223.128906 236.433594 221.382812 238.589844 221.382812 L 249.886719 221.382812 C 252.039062 221.382812 253.789062 223.128906 253.789062 225.289062" fill="#13272e"/></g><g><path d="M 233.988281 199.15625 C 233.988281 202.417969 231.34375 205.0625 228.085938 205.0625 L 186.480469 205.0625 C 183.214844 205.0625 180.574219 202.417969 180.574219 199.15625 C 180.574219 195.894531 183.214844 193.25 186.480469 193.25 L 228.085938 193.25 C 231.34375 193.25 233.988281 195.894531 233.988281 199.15625" fill="#081215"/></g><g><path d="M 309.054688 344.632812 C 309.054688 355.519531 300.226562 364.347656 289.339844 364.347656 L 125.222656 364.347656 C 114.335938 364.347656 105.507812 355.519531 105.507812 344.632812 L 105.507812 244.785156 C 105.507812 233.894531 114.335938 225.070312 125.222656 225.070312 L 289.339844 225.070312 C 300.226562 225.070312 309.054688 233.894531 309.054688 244.785156 L 309.054688 344.632812" fill="#9b9ba2"/></g><g><path d="M 303.496094 340.335938 C 303.496094 350.289062 295.152344 358.355469 284.855469 358.355469 L 129.703125 358.355469 C 119.40625 358.355469 111.0625 350.289062 111.0625 340.335938 L 111.0625 249.078125 C 111.0625 239.125 119.40625 231.058594 129.703125 231.058594 L 284.855469 231.058594 C 295.152344 231.058594 303.496094 239.125 303.496094 249.078125 L 303.496094 340.335938" fill="#cfd2d5"/></g><g><path d="M 207.28125 248.898438 C 181.980469 248.898438 161.472656 269.40625 161.472656 294.710938 C 161.472656 320.007812 181.980469 340.519531 207.28125 340.519531 C 232.582031 340.519531 253.089844 320.007812 253.089844 294.710938 C 253.089844 269.40625 232.582031 248.898438 207.28125 248.898438" fill="#2c7879"/></g><g><path d="M 207.28125 253.089844 C 184.300781 253.089844 165.667969 271.726562 165.667969 294.710938 C 165.667969 317.6875 184.300781 336.324219 207.28125 336.324219 C 230.269531 336.324219 248.894531 317.6875 248.894531 294.710938 C 248.894531 271.726562 230.269531 253.089844 207.28125 253.089844" fill="#47bab5"/></g><g><path d="M 235.78125 300.066406 L 212.644531 300.066406 L 212.644531 323.207031 L 201.925781 323.207031 L 201.925781 300.066406 L 178.777344 300.066406 L 178.777344 289.351562 L 201.925781 289.351562 L 201.925781 266.203125 L 212.644531 266.203125 L 212.644531 289.351562 L 235.78125 289.351562 L 235.78125 300.066406" fill="#fff"/></g></g></svg>