<?xml version="1.0" encoding="UTF-8"?><svg xmlns="http://www.w3.org/2000/svg" xmlns:xlink="http://www.w3.org/1999/xlink" height="996.4" preserveAspectRatio="xMidYMid meet" version="1.0" viewBox="-2.4 0.0 1002.7 996.4" width="1002.7" zoomAndPan="magnify"><defs><clipPath id="a"><path d="M 480 198 L 1000.261719 198 L 1000.261719 996.398438 L 480 996.398438 Z M 480 198"/></clipPath></defs><g><g clip-path="url(#a)"><path d="M 1000.261719 996.398438 L 499.679688 996.398438 C 489.199219 996.398438 480.707031 987.90625 480.707031 977.429688 L 480.707031 217.84375 C 480.707031 207.367188 489.199219 198.871094 499.679688 198.871094 L 981.285156 198.871094 C 991.761719 198.871094 1000.261719 207.367188 1000.261719 217.84375 L 1000.261719 996.398438" fill="#d3d4d3"/></g><g><path d="M 956.691406 973.566406 L 489.871094 973.566406 C 479.617188 973.566406 471.308594 965.257812 471.308594 955.003906 L 471.308594 205.003906 C 471.308594 194.753906 479.617188 186.441406 489.871094 186.441406 L 956.691406 186.441406 C 966.941406 186.441406 975.253906 194.753906 975.253906 205.003906 L 975.253906 955.003906 C 975.253906 965.257812 966.941406 973.566406 956.691406 973.566406" fill="#6a5f50"/></g><g><path d="M 489.871094 191.570312 C 482.464844 191.570312 476.4375 197.597656 476.4375 205.003906 L 476.4375 955.003906 C 476.4375 962.410156 482.464844 968.4375 489.871094 968.4375 L 956.691406 968.4375 C 964.097656 968.4375 970.125 962.410156 970.125 955.003906 L 970.125 205.003906 C 970.125 197.597656 964.097656 191.570312 956.691406 191.570312 Z M 956.691406 978.695312 L 489.871094 978.695312 C 476.808594 978.695312 466.179688 968.066406 466.179688 955.003906 L 466.179688 205.003906 C 466.179688 191.941406 476.808594 181.3125 489.871094 181.3125 L 956.691406 181.3125 C 969.753906 181.3125 980.382812 191.941406 980.382812 205.003906 L 980.382812 955.003906 C 980.382812 968.066406 969.753906 978.695312 956.691406 978.695312" fill="#52423b"/></g><g><path d="M 954.449219 930.222656 L 493.269531 930.222656 L 493.269531 205.511719 L 954.449219 205.511719 L 954.449219 930.222656" fill="#61a3b8"/></g><g><path d="M 738.304688 205.511719 C 738.304688 210.300781 734.425781 214.183594 729.636719 214.183594 C 724.851562 214.183594 720.96875 210.300781 720.96875 205.511719 C 720.96875 200.726562 724.851562 196.84375 729.636719 196.84375 C 734.425781 196.84375 738.304688 200.726562 738.304688 205.511719" fill="#73929d"/></g><g><path d="M 560.859375 933.941406 C 555.484375 931.738281 551.847656 935.695312 549.859375 939.09375 C 549.535156 939.648438 549.257812 940.183594 549.019531 940.675781 C 548.820312 940.257812 548.589844 939.808594 548.328125 939.347656 C 546.371094 935.894531 542.6875 931.683594 537.179688 933.941406 C 533.152344 935.59375 528.609375 942.117188 533.613281 952.121094 C 537.261719 959.421875 544.878906 966.355469 547.808594 968.859375 L 547.808594 968.867188 C 547.882812 968.929688 549.007812 969.859375 549.007812 969.859375 C 549.007812 969.859375 549.019531 969.847656 549.019531 969.84375 C 549.023438 969.847656 549.035156 969.859375 549.035156 969.859375 C 549.035156 969.859375 550.15625 968.929688 550.230469 968.867188 C 550.230469 968.867188 560.777344 959.421875 564.429688 952.121094 C 569.429688 942.117188 564.890625 935.59375 560.859375 933.941406" fill="#f03c4e"/></g><g><path d="M 495.230469 64.902344 L 396.1875 64.902344 L 400.753906 90.761719 L 365.765625 64.902344 L 318.441406 64.902344 C 311.84375 64.902344 306.441406 59.503906 306.441406 52.902344 L 306.441406 12 C 306.441406 5.402344 311.84375 0 318.441406 0 L 495.230469 0 C 501.832031 0 507.230469 5.402344 507.230469 12 L 507.230469 52.902344 C 507.230469 59.503906 501.832031 64.902344 495.230469 64.902344" fill="#f03c4e"/></g><g><path d="M 376.042969 14.410156 C 369.085938 12 364.375 16.328125 361.800781 20.050781 C 361.382812 20.652344 361.023438 21.238281 360.714844 21.78125 C 360.457031 21.324219 360.15625 20.832031 359.820312 20.328125 C 357.289062 16.546875 352.519531 11.941406 345.390625 14.410156 C 340.171875 16.214844 334.292969 23.359375 340.769531 34.308594 C 345.492188 42.296875 355.351562 49.882812 359.148438 52.625 L 359.148438 52.632812 C 359.242188 52.699219 360.695312 53.714844 360.695312 53.714844 C 360.695312 53.714844 360.714844 53.703125 360.714844 53.703125 C 360.71875 53.703125 360.734375 53.714844 360.734375 53.714844 C 360.734375 53.714844 362.1875 52.699219 362.285156 52.632812 C 362.285156 52.632812 375.9375 42.296875 380.664062 34.308594 C 387.140625 23.359375 381.261719 16.214844 376.042969 14.410156" fill="#fff"/></g><g><path d="M 423.4375 29.753906 C 422.332031 31.628906 420.125 33.019531 417.292969 33.019531 C 413.644531 33.019531 411.289062 30.28125 411.289062 26.394531 C 411.289062 21.976562 413.835938 18.808594 417.4375 18.808594 C 421.851562 18.808594 423.820312 22.890625 423.820312 28.21875 C 423.820312 28.890625 423.675781 29.371094 423.4375 29.753906 Z M 417.773438 15.59375 C 411.386719 15.59375 407.113281 20.777344 407.113281 26.683594 C 407.113281 32.011719 410.714844 36.234375 416.332031 36.234375 C 419.453125 36.234375 421.949219 34.988281 423.675781 32.875 L 423.820312 32.875 C 423.242188 36.570312 421.757812 39.308594 419.691406 41.179688 C 417.914062 42.859375 415.613281 43.867188 413.164062 44.203125 C 411.722656 44.347656 410.667969 44.445312 409.753906 44.347656 L 409.753906 47.804688 C 410.761719 47.851562 412.105469 47.804688 413.644531 47.566406 C 417.003906 47.179688 420.316406 45.738281 422.714844 43.386719 C 425.789062 40.410156 428.09375 35.613281 428.09375 28.746094 C 428.09375 20.777344 424.15625 15.59375 417.773438 15.59375" fill="#fff"/></g><g><path d="M 448.058594 29.753906 C 446.957031 31.628906 444.746094 33.019531 441.914062 33.019531 C 438.265625 33.019531 435.914062 30.28125 435.914062 26.394531 C 435.914062 21.976562 438.460938 18.808594 442.058594 18.808594 C 446.476562 18.808594 448.445312 22.890625 448.445312 28.21875 C 448.445312 28.890625 448.300781 29.371094 448.058594 29.753906 Z M 442.394531 15.59375 C 436.011719 15.59375 431.738281 20.777344 431.738281 26.683594 C 431.738281 32.011719 435.339844 36.234375 440.953125 36.234375 C 444.074219 36.234375 446.570312 34.988281 448.300781 32.875 L 448.445312 32.875 C 447.867188 36.570312 446.378906 39.308594 444.316406 41.179688 C 442.539062 42.859375 440.234375 43.867188 437.785156 44.203125 C 436.347656 44.347656 435.289062 44.445312 434.378906 44.347656 L 434.378906 47.804688 C 435.386719 47.851562 436.730469 47.804688 438.265625 47.566406 C 441.628906 47.179688 444.941406 45.738281 447.339844 43.386719 C 450.410156 40.410156 452.714844 35.613281 452.714844 28.746094 C 452.714844 20.777344 448.78125 15.59375 442.394531 15.59375" fill="#fff"/></g><g><path d="M 472.683594 29.753906 C 471.578125 31.628906 469.371094 33.019531 466.539062 33.019531 C 462.890625 33.019531 460.539062 30.28125 460.539062 26.394531 C 460.539062 21.976562 463.082031 18.808594 466.683594 18.808594 C 471.097656 18.808594 473.066406 22.890625 473.066406 28.21875 C 473.066406 28.890625 472.921875 29.371094 472.683594 29.753906 Z M 467.019531 15.59375 C 460.632812 15.59375 456.363281 20.777344 456.363281 26.683594 C 456.363281 32.011719 459.960938 36.234375 465.578125 36.234375 C 468.699219 36.234375 471.195312 34.988281 472.921875 32.875 L 473.066406 32.875 C 472.492188 36.570312 471.003906 39.308594 468.9375 41.179688 C 467.164062 42.859375 464.859375 43.867188 462.410156 44.203125 C 460.96875 44.347656 459.914062 44.445312 459.003906 44.347656 L 459.003906 47.804688 C 460.011719 47.851562 461.355469 47.804688 462.890625 47.566406 C 466.25 47.179688 469.5625 45.738281 471.964844 43.386719 C 475.035156 40.410156 477.339844 35.613281 477.339844 28.746094 C 477.339844 20.777344 473.402344 15.59375 467.019531 15.59375" fill="#fff"/></g><g><path d="M 845.382812 573.332031 L 845.382812 608.148438 C 845.382812 614.230469 850.3125 619.160156 856.390625 619.160156 L 930.046875 619.160156 L 926.027344 641.925781 L 956.828125 619.160156 L 987.777344 619.160156 C 993.121094 619.160156 997.449219 614.828125 997.449219 609.488281 L 997.449219 571.695312 C 997.449219 566.355469 993.121094 562.023438 987.777344 562.023438 L 856.691406 562.023438 C 850.445312 562.023438 845.382812 567.085938 845.382812 573.332031" fill="#f03c4e"/></g><g><path d="M 901.382812 583.835938 L 886.371094 583.835938 L 886.371094 571.457031 C 886.371094 571.457031 885.421875 564.554688 880.996094 563.960938 C 879.476562 563.753906 877.445312 565.554688 877.445312 567.507812 L 877.445312 579.433594 C 877.445312 581.863281 875.472656 583.835938 873.042969 583.835938 C 872.1875 583.835938 871.425781 584.210938 870.898438 584.808594 L 870.898438 610.867188 C 871.558594 611.929688 872.730469 612.636719 874.070312 612.636719 L 895.597656 612.636719 C 897.40625 612.160156 898.75 610.511719 898.75 608.558594 L 898.75 608.511719 C 900.027344 607.78125 900.894531 606.410156 900.894531 604.84375 L 900.894531 602.820312 C 900.894531 602.199219 900.753906 601.609375 900.511719 601.074219 C 901.734375 600.332031 902.558594 598.992188 902.558594 597.464844 L 902.558594 595.441406 C 902.558594 594.746094 902.386719 594.089844 902.085938 593.511719 C 903.359375 592.78125 904.226562 591.410156 904.226562 589.847656 L 904.226562 587.824219 C 904.226562 585.984375 903.03125 584.410156 901.382812 583.835938" fill="#fff"/></g><g><path d="M 867.925781 584.074219 L 861.5 584.074219 C 860.644531 584.074219 859.953125 584.765625 859.953125 585.621094 L 859.953125 610.378906 C 859.953125 611.230469 860.644531 611.925781 861.5 611.925781 L 867.925781 611.925781 C 868.78125 611.925781 869.472656 611.230469 869.472656 610.378906 L 869.472656 585.621094 C 869.472656 584.765625 868.78125 584.074219 867.925781 584.074219" fill="#fff"/></g><g><path d="M 951.605469 592.695312 C 950.636719 594.34375 948.691406 595.566406 946.195312 595.566406 C 942.984375 595.566406 940.914062 593.160156 940.914062 589.734375 C 940.914062 585.847656 943.152344 583.058594 946.324219 583.058594 C 950.210938 583.058594 951.945312 586.652344 951.945312 591.34375 C 951.945312 591.933594 951.816406 592.355469 951.605469 592.695312 Z M 946.617188 580.226562 C 941 580.226562 937.238281 584.789062 937.238281 589.988281 C 937.238281 594.679688 940.40625 598.398438 945.351562 598.398438 C 948.097656 598.398438 950.296875 597.300781 951.816406 595.441406 L 951.945312 595.441406 C 951.4375 598.695312 950.128906 601.105469 948.308594 602.753906 C 946.746094 604.230469 944.71875 605.117188 942.5625 605.414062 C 941.296875 605.542969 940.363281 605.625 939.5625 605.542969 L 939.5625 608.585938 C 940.449219 608.625 941.632812 608.585938 942.984375 608.371094 C 945.941406 608.035156 948.859375 606.765625 950.972656 604.695312 C 953.675781 602.078125 955.707031 597.851562 955.707031 591.808594 C 955.707031 584.789062 952.238281 580.226562 946.617188 580.226562" fill="#fff"/></g><g><path d="M 974.472656 592.695312 C 973.503906 594.34375 971.558594 595.566406 969.066406 595.566406 C 965.851562 595.566406 963.78125 593.160156 963.78125 589.734375 C 963.78125 585.847656 966.023438 583.058594 969.191406 583.058594 C 973.078125 583.058594 974.8125 586.652344 974.8125 591.34375 C 974.8125 591.933594 974.683594 592.355469 974.472656 592.695312 Z M 969.488281 580.226562 C 963.867188 580.226562 960.105469 584.789062 960.105469 589.988281 C 960.105469 594.679688 963.273438 598.398438 968.21875 598.398438 C 970.96875 598.398438 973.164062 597.300781 974.683594 595.441406 L 974.8125 595.441406 C 974.304688 598.695312 972.996094 601.105469 971.175781 602.753906 C 969.613281 604.230469 967.585938 605.117188 965.429688 605.414062 C 964.160156 605.542969 963.230469 605.625 962.429688 605.542969 L 962.429688 608.585938 C 963.316406 608.625 964.5 608.585938 965.851562 608.371094 C 968.8125 608.035156 971.726562 606.765625 973.839844 604.695312 C 976.546875 602.078125 978.574219 597.851562 978.574219 591.808594 C 978.574219 584.789062 975.109375 580.226562 969.488281 580.226562" fill="#fff"/></g><g><path d="M 925.285156 605.636719 C 921.777344 605.636719 919.664062 603.1875 919.789062 600.398438 C 919.789062 597.777344 921.523438 595.664062 924.734375 594.734375 C 928.453125 595.789062 930.777344 597.394531 930.777344 600.734375 C 930.777344 603.566406 928.621094 605.636719 925.285156 605.636719 Z M 920.550781 587 C 920.550781 584.632812 922.242188 582.605469 925.324219 582.605469 C 928.664062 582.605469 929.972656 584.886719 929.972656 587.085938 C 929.972656 589.578125 928.15625 591.269531 925.789062 592.070312 C 922.621094 591.226562 920.550781 589.746094 920.550781 587 Z M 929.003906 593.253906 L 929.003906 593.128906 C 932.382812 591.523438 933.523438 589.027344 933.523438 586.703125 C 933.523438 583.28125 930.863281 579.941406 925.535156 579.941406 C 920.71875 579.941406 917.042969 582.902344 917.042969 587.253906 C 917.042969 589.621094 918.351562 591.988281 921.394531 593.421875 L 921.4375 593.550781 C 918.054688 594.988281 915.984375 597.4375 915.984375 600.902344 C 915.984375 604.917969 919.453125 608.339844 925.199219 608.339844 C 930.4375 608.339844 934.539062 605.128906 934.539062 600.355469 C 934.539062 597.015625 932.425781 594.605469 929.003906 593.253906" fill="#fff"/></g><g><path d="M 516.691406 660.378906 L 516.691406 688.144531 C 516.691406 692.992188 512.761719 696.925781 507.910156 696.925781 L 449.175781 696.925781 L 452.378906 715.078125 L 427.816406 696.925781 L 403.136719 696.925781 C 398.878906 696.925781 395.425781 693.472656 395.425781 689.210938 L 395.425781 659.074219 C 395.425781 654.8125 398.878906 651.359375 403.136719 651.359375 L 507.671875 651.359375 C 512.652344 651.359375 516.691406 655.398438 516.691406 660.378906" fill="#f03c4e"/></g><g><path d="M 416.015625 665.210938 L 416.015625 684.957031 C 416.015625 686.851562 417.566406 688.402344 419.460938 688.402344 L 451.871094 688.402344 C 453.765625 688.402344 455.316406 686.851562 455.316406 684.957031 L 455.316406 665.210938 L 435.226562 677.046875 L 416.015625 665.210938" fill="#fff"/></g><g><path d="M 455.3125 663.773438 C 455.3125 661.878906 453.761719 660.328125 451.867188 660.328125 L 419.460938 660.328125 C 417.566406 660.328125 416.015625 661.878906 416.015625 663.773438 L 416.015625 663.777344 L 435.226562 675.613281 L 455.3125 663.773438" fill="#fff"/></g><g><path d="M 490.878906 673.921875 C 490.101562 675.234375 488.550781 676.210938 486.5625 676.210938 C 484.003906 676.210938 482.351562 674.289062 482.351562 671.5625 C 482.351562 668.460938 484.136719 666.238281 486.664062 666.238281 C 489.765625 666.238281 491.148438 669.101562 491.148438 672.84375 C 491.148438 673.3125 491.046875 673.652344 490.878906 673.921875 Z M 486.898438 663.980469 C 482.417969 663.980469 479.417969 667.617188 479.417969 671.765625 C 479.417969 675.503906 481.945312 678.472656 485.890625 678.472656 C 488.078125 678.472656 489.832031 677.59375 491.046875 676.113281 L 491.148438 676.113281 C 490.742188 678.707031 489.695312 680.628906 488.246094 681.941406 C 487 683.121094 485.382812 683.828125 483.664062 684.066406 C 482.652344 684.164062 481.910156 684.234375 481.273438 684.164062 L 481.273438 686.59375 C 481.980469 686.625 482.921875 686.59375 484.003906 686.425781 C 486.359375 686.15625 488.6875 685.144531 490.371094 683.492188 C 492.527344 681.402344 494.144531 678.03125 494.144531 673.214844 C 494.144531 667.617188 491.382812 663.980469 486.898438 663.980469" fill="#fff"/></g><g><path d="M 469.886719 684.242188 C 467.089844 684.242188 465.402344 682.285156 465.503906 680.0625 C 465.503906 677.972656 466.886719 676.289062 469.449219 675.546875 C 472.414062 676.390625 474.265625 677.671875 474.265625 680.332031 C 474.265625 682.589844 472.550781 684.242188 469.886719 684.242188 Z M 466.113281 669.378906 C 466.113281 667.492188 467.460938 665.875 469.917969 665.875 C 472.582031 665.875 473.625 667.695312 473.625 669.449219 C 473.625 671.4375 472.179688 672.785156 470.289062 673.425781 C 467.761719 672.75 466.113281 671.570312 466.113281 669.378906 Z M 472.851562 674.367188 L 472.851562 674.265625 C 475.546875 672.984375 476.457031 670.996094 476.457031 669.144531 C 476.457031 666.414062 474.335938 663.75 470.089844 663.75 C 466.246094 663.75 463.3125 666.109375 463.3125 669.582031 C 463.3125 671.46875 464.359375 673.355469 466.785156 674.503906 L 466.820312 674.605469 C 464.121094 675.75 462.472656 677.703125 462.472656 680.46875 C 462.472656 683.667969 465.234375 686.398438 469.820312 686.398438 C 473.996094 686.398438 477.265625 683.839844 477.265625 680.03125 C 477.265625 677.367188 475.582031 675.445312 472.851562 674.367188" fill="#fff"/></g><g><path d="M 757.46875 86.152344 C 757.46875 83.28125 759.792969 80.957031 762.660156 80.957031 C 765.53125 80.957031 767.855469 83.28125 767.855469 86.152344 C 767.855469 89.019531 765.53125 91.347656 762.660156 91.347656 C 759.792969 91.347656 757.46875 89.019531 757.46875 86.152344 Z M 772.785156 85.753906 C 772.785156 82.882812 775.109375 80.558594 777.980469 80.558594 C 780.847656 80.558594 783.175781 82.882812 783.175781 85.753906 C 783.175781 88.621094 780.847656 90.945312 777.980469 90.945312 C 775.109375 90.945312 772.785156 88.621094 772.785156 85.753906 Z M 788.769531 85.753906 C 788.769531 82.882812 791.09375 80.558594 793.964844 80.558594 C 796.832031 80.558594 799.15625 82.882812 799.15625 85.753906 C 799.15625 88.621094 796.832031 90.945312 793.964844 90.945312 C 791.09375 90.945312 788.769531 88.621094 788.769531 85.753906 Z M 736.050781 141.972656 C 738.164062 142.90625 757.675781 123.796875 759.949219 124.5 C 765.960938 126.359375 772.488281 127.378906 779.3125 127.378906 C 809.105469 127.378906 833.257812 107.953125 833.257812 83.988281 C 833.257812 60.023438 809.105469 40.597656 779.3125 40.597656 C 749.519531 40.597656 725.367188 60.023438 725.367188 83.988281 C 725.367188 97.84375 733.441406 110.183594 746.011719 118.128906 C 748.320312 119.585938 733.464844 140.828125 736.050781 141.972656" fill="#f03c4e"/></g><g><path d="M 839.972656 492.171875 L 903.800781 492.171875 L 900.855469 511.09375 L 923.402344 492.171875 L 953.898438 492.171875 C 958.152344 492.171875 961.632812 488.21875 961.632812 483.390625 L 961.632812 453.460938 C 961.632812 448.628906 958.152344 444.679688 953.898438 444.679688 L 839.972656 444.679688 C 835.71875 444.679688 832.238281 448.628906 832.238281 453.460938 L 832.238281 483.390625 C 832.238281 488.21875 835.71875 492.171875 839.972656 492.171875" fill="#f03c4e"/></g><g><path d="M 873.464844 465.539062 C 873.277344 465.527344 870.90625 468.90625 865.527344 469.183594 C 860.148438 468.90625 857.777344 465.527344 857.589844 465.539062 C 852.734375 465.839844 848.855469 469.902344 848.855469 474.828125 L 848.855469 484.726562 C 848.855469 486.296875 850.136719 487.578125 851.707031 487.578125 L 880.539062 487.578125 C 882.105469 487.578125 882.203125 486.296875 882.203125 484.726562 L 882.203125 474.828125 C 882.203125 469.902344 878.320312 465.839844 873.464844 465.539062" fill="#fff"/></g><g><path d="M 865.546875 468.09375 C 870.871094 468.09375 875.1875 463.777344 875.1875 458.449219 C 875.1875 453.125 870.871094 448.808594 865.546875 448.808594 C 860.21875 448.808594 855.902344 453.125 855.902344 458.449219 C 855.902344 463.777344 860.21875 468.09375 865.546875 468.09375" fill="#fff"/></g><g><path d="M 885.871094 462.453125 L 886.425781 464.636719 L 890.105469 462.648438 L 890.171875 462.648438 L 890.171875 481.15625 L 892.941406 481.15625 L 892.941406 459.976562 L 890.496094 459.976562 L 885.871094 462.453125" fill="#fff"/></g><g><path d="M 909.066406 469.71875 L 909.066406 469.65625 C 911.675781 468.710938 912.976562 466.851562 912.976562 464.671875 C 912.976562 462.097656 911.085938 459.621094 906.917969 459.621094 C 904.636719 459.621094 902.484375 460.433594 901.378906 461.25 L 902.128906 463.335938 C 903.039062 462.683594 904.667969 461.933594 906.363281 461.933594 C 909.003906 461.933594 910.078125 463.429688 910.078125 465.125 C 910.078125 467.636719 907.4375 468.710938 905.351562 468.710938 L 903.757812 468.710938 L 903.757812 470.859375 L 905.351562 470.859375 C 908.121094 470.859375 910.792969 472.132812 910.824219 475.097656 C 910.859375 476.855469 909.71875 479.199219 906.035156 479.199219 C 904.050781 479.199219 902.160156 478.386719 901.34375 477.863281 L 900.5625 480.078125 C 901.605469 480.765625 903.691406 481.515625 906.070312 481.515625 C 911.152344 481.515625 913.789062 478.550781 913.789062 475.160156 C 913.789062 472.195312 911.675781 470.242188 909.066406 469.71875" fill="#fff"/></g><g><path d="M 919.296875 462.453125 L 919.847656 464.636719 L 923.53125 462.648438 L 923.59375 462.648438 L 923.59375 481.15625 L 926.363281 481.15625 L 926.363281 459.976562 L 923.921875 459.976562 L 919.296875 462.453125" fill="#fff"/></g><g><path d="M 942.488281 469.71875 L 942.488281 469.65625 C 945.097656 468.710938 946.398438 466.851562 946.398438 464.671875 C 946.398438 462.097656 944.511719 459.621094 940.339844 459.621094 C 938.058594 459.621094 935.910156 460.433594 934.800781 461.25 L 935.550781 463.335938 C 936.464844 462.683594 938.09375 461.933594 939.785156 461.933594 C 942.425781 461.933594 943.5 463.429688 943.5 465.125 C 943.5 467.636719 940.863281 468.710938 938.777344 468.710938 L 937.179688 468.710938 L 937.179688 470.859375 L 938.777344 470.859375 C 941.546875 470.859375 944.21875 472.132812 944.25 475.097656 C 944.28125 476.855469 943.140625 479.199219 939.460938 479.199219 C 937.472656 479.199219 935.585938 478.386719 934.769531 477.863281 L 933.988281 480.078125 C 935.03125 480.765625 937.113281 481.515625 939.492188 481.515625 C 944.574219 481.515625 947.214844 478.550781 947.214844 475.160156 C 947.214844 472.195312 945.097656 470.242188 942.488281 469.71875" fill="#fff"/></g><g><path d="M 911.636719 755.589844 C 888.347656 719.152344 864.359375 703.285156 842.546875 685.730469 C 838.753906 701.035156 830.816406 714.96875 820.277344 726.769531 C 797.425781 752.359375 763.824219 768.292969 730.234375 773.617188 C 714.148438 776.164062 697.601562 776.347656 681.601562 773.109375 C 673.84375 771.539062 666.265625 769.121094 659.085938 765.785156 C 657.5 765.050781 654.65625 764.03125 652.367188 762.796875 C 647.660156 797.648438 637.609375 882.367188 631.703125 930.222656 L 934.53125 930.222656 C 936.855469 876.742188 937.453125 795.980469 911.636719 755.589844" fill="#855434"/></g><g><path d="M 911.636719 755.589844 C 888.347656 719.152344 864.359375 703.285156 842.546875 685.730469 C 841.835938 688.601562 840.976562 691.425781 839.984375 694.195312 C 860.28125 710.15625 882.195312 726.277344 903.523438 759.644531 C 928.699219 799.027344 928.757812 876.789062 926.589844 930.222656 L 934.53125 930.222656 C 936.855469 876.742188 937.453125 795.980469 911.636719 755.589844" fill="#a47444"/></g><g><path d="M 854.933594 732.738281 C 856.542969 705.363281 847.050781 696.054688 846.5 688.878906 C 845.175781 687.832031 843.855469 686.785156 842.546875 685.730469 C 838.753906 701.035156 830.816406 714.96875 820.277344 726.769531 C 797.425781 752.359375 763.824219 768.292969 730.234375 773.617188 C 714.148438 776.164062 697.601562 776.347656 681.601562 773.109375 C 673.84375 771.539062 666.265625 769.121094 659.085938 765.785156 C 657.5 765.050781 654.65625 764.035156 652.367188 762.796875 C 647.660156 797.648438 637.609375 882.367188 631.703125 930.222656 L 747.023438 930.222656 C 747.0625 927.566406 768.425781 876.269531 797.132812 827.046875 C 821.726562 784.867188 854.230469 744.671875 854.933594 732.738281" fill="#6f4324"/></g><g><path d="M 841.492188 677.335938 C 838.0625 673.03125 832.386719 671.316406 827.488281 669.28125 C 825.472656 668.445312 823.453125 667.609375 821.4375 666.769531 C 812.773438 657.363281 804.675781 645.339844 802.976562 631.40625 C 797.074219 583.003906 804.339844 510.773438 806.257812 477.1875 C 808.285156 441.695312 792.714844 409.40625 766.707031 396.0625 C 740.710938 382.722656 701.890625 369.996094 700.390625 368.667969 C 695.9375 364.730469 689.734375 355.027344 682.539062 352.457031 C 665 346.191406 627.003906 360.148438 608.511719 367.667969 C 584.484375 377.441406 583.269531 378.507812 578.800781 385.4375 C 575.78125 386.460938 380.296875 502.855469 354.988281 517.753906 C 310.523438 543.925781 340.964844 583.125 375.269531 569.46875 C 392.9375 562.4375 517.269531 510.96875 550.457031 496.382812 C 550.4375 496.425781 550.421875 496.464844 550.402344 496.503906 C 550.171875 496.964844 549.941406 497.425781 549.714844 497.886719 C 549.738281 497.882812 549.761719 497.882812 549.785156 497.878906 C 546.921875 504.257812 544.195312 510.46875 543.867188 511.6875 C 539.386719 528.175781 539.640625 545.785156 544.914062 562.417969 C 570.058594 641.742188 625.113281 708.527344 648.277344 738.453125 C 646.402344 747.105469 642.421875 758.699219 647.371094 766.703125 C 652.230469 774.554688 665.390625 776.277344 673.585938 778.046875 C 694.503906 782.5625 716.183594 782.761719 737.242188 779.101562 C 758.566406 775.398438 779.285156 767.539062 797.605469 756 C 815.324219 744.839844 833.46875 729.640625 841.65625 709.84375 C 845.527344 700.480469 848.425781 686.046875 841.492188 677.335938" fill="#e9eaea"/></g><g><path d="M 841.152344 677.167969 C 837.726562 672.863281 832.050781 671.148438 827.148438 669.113281 C 825.132812 668.277344 823.117188 667.4375 821.101562 666.601562 C 812.433594 657.195312 804.335938 645.167969 802.636719 631.234375 C 796.738281 582.835938 804 510.605469 805.917969 477.019531 C 807.945312 441.527344 792.375 409.238281 766.371094 395.894531 C 740.375 382.550781 701.554688 369.828125 700.050781 368.496094 C 695.601562 364.558594 689.398438 354.859375 682.199219 352.285156 C 664.660156 346.023438 626.664062 359.976562 608.171875 367.496094 C 607.585938 367.738281 607.019531 367.96875 606.460938 368.195312 C 626.234375 360.503906 658.757812 349.671875 674.59375 355.328125 C 681.792969 357.898438 687.996094 367.601562 692.445312 371.539062 C 693.949219 372.871094 732.769531 385.59375 758.765625 398.933594 C 784.769531 412.28125 800.34375 444.570312 798.3125 480.0625 C 796.394531 513.648438 789.132812 585.875 795.03125 634.277344 C 796.730469 648.210938 804.828125 660.234375 813.496094 669.644531 C 815.511719 670.480469 817.527344 671.316406 819.542969 672.15625 C 824.445312 674.1875 830.121094 675.902344 833.550781 680.210938 C 840.480469 688.917969 837.585938 703.355469 833.714844 712.71875 C 825.523438 732.515625 807.382812 747.710938 789.664062 758.871094 C 782.402344 763.449219 774.757812 767.433594 766.855469 770.820312 C 777.476562 766.871094 787.699219 761.859375 797.269531 755.832031 C 814.988281 744.667969 833.132812 729.472656 841.320312 709.675781 C 845.191406 700.3125 848.089844 685.875 841.152344 677.167969" fill="#fff"/></g><g><path d="M 760.832031 442.488281 C 752.992188 427.640625 741.453125 416.289062 729.984375 404.339844 C 721.824219 395.839844 716.511719 386.375 716.925781 375.054688 C 707.582031 371.5625 700.992188 369.199219 700.390625 368.667969 C 699.519531 367.898438 698.585938 366.90625 697.589844 365.796875 C 696.722656 375.871094 695.261719 385.929688 692.65625 395.6875 C 689.574219 407.257812 684.683594 420.011719 674.167969 426.765625 C 673.605469 427.128906 672.8125 426.976562 672.351562 426.53125 C 659.160156 413.785156 641.03125 413.152344 628.839844 427.546875 C 627.574219 429.035156 625.539062 426.90625 626.71875 425.425781 C 635.785156 413.996094 648.929688 407.027344 658.765625 396.386719 C 670.296875 383.910156 675.261719 367.585938 680.785156 351.914062 C 662.578125 347.082031 626.40625 360.386719 608.511719 367.667969 C 584.484375 377.441406 583.269531 378.507812 578.800781 385.4375 C 575.78125 386.460938 380.296875 502.855469 354.988281 517.753906 C 310.523438 543.925781 340.964844 583.125 375.269531 569.46875 C 392.9375 562.4375 517.269531 510.96875 550.457031 496.382812 C 550.4375 496.425781 550.421875 496.464844 550.402344 496.503906 C 550.171875 496.964844 549.941406 497.425781 549.714844 497.886719 C 549.738281 497.882812 549.761719 497.882812 549.785156 497.878906 C 546.921875 504.257812 544.195312 510.46875 543.867188 511.6875 C 539.386719 528.175781 539.640625 545.785156 544.914062 562.417969 C 570.058594 641.742188 625.113281 708.527344 648.277344 738.453125 C 646.402344 747.105469 642.421875 758.699219 647.371094 766.703125 C 652.230469 774.554688 665.390625 776.277344 673.585938 778.046875 C 689.164062 781.410156 705.160156 782.375 721.011719 781.140625 C 721.867188 770.84375 730.839844 758.804688 741.285156 746.992188 C 756.285156 730.035156 777.378906 704.414062 778.878906 694.203125 C 780.761719 681.355469 730.605469 732.164062 730.199219 711.441406 C 729.601562 680.867188 712.929688 613.542969 718.03125 583.667969 C 727.511719 528.160156 765.082031 493.84375 766.859375 486.988281 C 770.824219 471.710938 768.128906 456.316406 760.832031 442.488281" fill="#d3d4d3"/></g><g><path d="M 588.273438 431.65625 C 587.664062 431.679688 587.039062 431.917969 586.480469 432.476562 C 580.800781 438.144531 574.273438 446.851562 566.671875 451.023438 C 570.070312 431.109375 574.058594 411.308594 578.648438 391.636719 C 579.480469 388.066406 573.988281 386.542969 573.152344 390.117188 C 568.152344 411.554688 563.855469 433.140625 560.269531 454.859375 C 559.929688 456.933594 561.511719 458.980469 563.777344 458.363281 C 574.480469 455.441406 582.40625 444.742188 589.949219 437.074219 C 590.015625 437.050781 590.078125 437.035156 590.144531 437.003906 C 593.480469 435.390625 597.472656 437.042969 599.152344 440.191406 C 600.875 443.429688 605.796875 440.554688 604.070312 437.316406 C 601.027344 431.605469 594.121094 429.410156 588.273438 431.65625" fill="#bbbcbd"/></g><g><path d="M 697.554688 373.15625 C 695.550781 399.035156 691.714844 424.695312 686.136719 450.035156 C 681.101562 446.382812 676.34375 442.390625 671.941406 437.96875 C 667.160156 433.160156 663.417969 426.339844 658.105469 422.25 C 654.222656 419.257812 649.011719 418.429688 644.25 419.210938 C 641.515625 419.65625 638.90625 420.65625 636.449219 421.917969 C 634.769531 422.78125 633.175781 423.808594 631.621094 424.871094 C 631.457031 424.988281 630.878906 425.355469 630.265625 425.796875 C 629.601562 425.910156 629.085938 426.230469 628.722656 426.671875 C 628.324219 426.722656 627.910156 426.882812 627.496094 427.199219 C 626.410156 428.019531 625.851562 428.605469 625.445312 429.90625 C 625.421875 429.972656 625.417969 430.046875 625.402344 430.117188 C 613.933594 441.066406 613 458.304688 615.015625 473.660156 C 617.652344 493.765625 621.21875 513.824219 624.789062 533.78125 C 631.988281 573.976562 640.921875 614.054688 655.015625 652.453125 C 662.90625 673.949219 672.425781 694.816406 683.890625 714.644531 C 685.722656 717.820312 690.652344 714.953125 688.808594 711.769531 C 650.460938 645.4375 635.867188 569.234375 623.941406 494.46875 C 620.890625 475.339844 612.992188 446.5625 631.167969 432.59375 C 634.039062 431.085938 636.945312 428.042969 639.324219 426.839844 C 646.925781 422.992188 653.097656 424.453125 658.253906 430.996094 C 666.3125 441.230469 675.789062 449.988281 686.5625 457.308594 C 688.050781 458.320312 690.355469 457.316406 690.746094 455.605469 C 696.933594 428.457031 701.101562 400.914062 703.257812 373.15625 C 703.539062 369.5 697.839844 369.519531 697.554688 373.15625" fill="#bbbcbd"/></g><g><path d="M 555.9375 463.527344 L 546.496094 496.171875 C 545.476562 499.699219 550.972656 501.207031 551.992188 497.683594 C 555.140625 486.804688 558.285156 475.925781 561.429688 465.042969 C 562.453125 461.511719 556.953125 460.007812 555.9375 463.527344" fill="#bbbcbd"/></g><g><path d="M 373.460938 349.445312 C 375.488281 358.367188 378.175781 370.132812 381.296875 383.652344 L 429.367188 384.28125 C 417.773438 360.484375 408.523438 340.75 405.238281 331.800781 C 405.078125 331.367188 404.824219 331.058594 404.523438 330.855469 C 398.152344 306.59375 384.625 284.515625 365.753906 269.679688 C 356.148438 262.128906 345.453125 258.804688 333.660156 259.265625 C 326.640625 259.542969 312.09375 259.820312 313.753906 271.101562 C 311.808594 271.558594 309.933594 272.160156 308.175781 272.964844 C 302.199219 275.695312 298.347656 282.457031 300.996094 289.144531 C 299.222656 290.644531 297.921875 292.667969 297.613281 295.371094 C 297.183594 299.113281 299.117188 302.527344 302.199219 303.628906 C 300.738281 306.210938 300.96875 309.609375 302.835938 311.941406 C 302.390625 313.066406 302.261719 314.4375 302.546875 316.113281 C 303.300781 320.574219 306.539062 323.289062 310.316406 323.949219 C 308.617188 330.324219 311.117188 336.273438 315.488281 341.003906 C 321.90625 347.949219 329.777344 353.710938 337.140625 359.628906 C 336.691406 361.964844 335.53125 368.996094 334.101562 377.832031 L 373.203125 378.34375 C 373.21875 378.34375 373.230469 378.347656 373.242188 378.347656 C 373.160156 370.304688 373.140625 363.058594 373.1875 356.898438 C 373.207031 354.304688 373.414062 349.542969 373.460938 349.445312" fill="#f5b47a"/></g><g><path d="M 418.265625 362.621094 C 412.285156 368.257812 403.722656 371.921875 395.765625 370.777344 C 391.511719 370.164062 387.796875 367.933594 385.335938 364.394531 C 380.9375 358.070312 383.613281 349.4375 378.730469 343.585938 C 376.925781 341.421875 374.542969 340.515625 372.054688 339.34375 C 369.054688 337.933594 366.292969 336.207031 363.652344 334.199219 C 358.929688 330.601562 354.835938 326.226562 351.753906 321.140625 C 345.683594 311.128906 342.957031 297.671875 346.671875 286.347656 C 349.433594 277.9375 355.503906 271.847656 363.183594 268.261719 C 354.070312 261.714844 344.007812 258.835938 332.984375 259.265625 C 325.964844 259.542969 311.417969 259.820312 313.078125 271.101562 C 311.132812 271.558594 309.257812 272.160156 307.5 272.964844 C 301.523438 275.695312 297.671875 282.457031 300.320312 289.144531 C 298.546875 290.644531 297.246094 292.667969 296.9375 295.371094 C 296.507812 299.113281 298.441406 302.53125 301.523438 303.628906 C 300.0625 306.210938 300.292969 309.609375 302.160156 311.941406 C 301.714844 313.066406 301.585938 314.4375 301.867188 316.113281 C 302.625 320.574219 305.863281 323.289062 309.640625 323.949219 C 307.941406 330.324219 310.441406 336.273438 314.8125 341.003906 C 321.230469 347.949219 329.101562 353.710938 336.464844 359.628906 C 336.015625 361.964844 334.855469 368.996094 333.425781 377.832031 L 372.527344 378.34375 C 372.542969 378.34375 372.554688 378.347656 372.566406 378.347656 C 372.484375 370.304688 372.464844 363.058594 372.511719 356.898438 C 372.53125 354.304688 372.738281 349.542969 372.78125 349.445312 C 374.8125 358.367188 377.5 370.132812 380.621094 383.652344 L 428.691406 384.28125 C 424.925781 376.554688 421.410156 369.261719 418.265625 362.621094" fill="#efa269"/></g><g><path d="M 445.910156 185.972656 C 435.773438 181.230469 306.015625 122.578125 301.800781 111.636719 C 288.691406 77.613281 262.324219 52.03125 228.226562 45.125 C 170.160156 33.367188 111.671875 80.214844 97.589844 149.757812 C 83.507812 219.300781 119.164062 285.207031 177.234375 296.964844 C 208.71875 303.339844 240.324219 292.480469 264.910156 270.117188 C 275.449219 260.535156 421.960938 258.957031 430 258.835938 C 448.800781 258.546875 462.707031 250.636719 465.015625 239.230469 L 469.480469 217.175781 C 471.738281 206.027344 462.414062 193.699219 445.910156 185.972656" fill="#84b6c8"/></g><g><path d="M 445.910156 185.972656 C 435.773438 181.230469 306.015625 122.578125 301.800781 111.636719 C 307.730469 140.566406 306.398438 166.863281 301.71875 189.398438 C 292.480469 233.855469 270.199219 263.660156 264.910156 270.117188 C 269.113281 266.296875 294.9375 263.75 324.976562 262.058594 C 324.972656 262.113281 324.96875 262.175781 324.96875 262.226562 C 326.050781 261.996094 343.070312 263.09375 345.269531 263.496094 C 351.039062 264.558594 355.90625 265.992188 359.449219 267.222656 C 363.472656 268.617188 365.792969 269.742188 365.792969 269.742188 L 365.425781 260.296875 C 397.945312 259.203125 426.570312 258.886719 430 258.835938 C 448.800781 258.546875 462.707031 250.636719 465.015625 239.230469 L 469.480469 217.175781 C 471.738281 206.027344 462.414062 193.699219 445.910156 185.972656" fill="#61a3b8"/></g><g><path d="M 341.429688 322.792969 C 336.933594 325.375 333.09375 329.417969 327.984375 330.886719 L 328.125 334.507812 C 328.644531 347.875 338.070312 358.449219 349.074219 358.007812 C 355.699219 357.738281 361.429688 353.515625 364.84375 347.289062 C 354.285156 343.359375 345.507812 332.769531 341.429688 322.792969" fill="#61a3b8"/></g><g><path d="M 281.328125 188.167969 C 269.527344 248.917969 229.5 293.726562 179.835938 284.898438 C 130.171875 276.066406 96.597656 220.269531 108.113281 155.492188 C 119.628906 90.710938 170.21875 47.523438 219.882812 56.351562 C 269.546875 65.179688 293.878906 123.578125 281.328125 188.167969" fill="#e9eaea"/></g><g><path d="M 193.433594 175.222656 C 182.777344 234.363281 230.230469 275.183594 235.601562 271.117188 C 258.128906 254.046875 274.714844 223.949219 281.625 188.382812 C 287.886719 156.15625 284.960938 125.472656 274.292969 101.714844 C 272.53125 97.796875 203.511719 119.300781 193.433594 175.222656" fill="#d3d4d3"/></g><g><path d="M 283.671875 157.101562 L 201.253906 148.410156 C 192.132812 146.808594 185.183594 152.554688 183.765625 160.621094 L 180.953125 183.242188 C 179.53125 191.308594 182.6875 200.527344 191.8125 202.128906 L 270.007812 223.425781 C 270.007812 223.425781 271.699219 219.460938 273.824219 213.308594 C 275.71875 207.828125 277.953125 200.613281 279.636719 192.925781 C 280.996094 186.695312 281.902344 180.414062 282.5 174.890625 C 283.601562 164.714844 283.671875 157.101562 283.671875 157.101562" fill="#f4f6f5"/></g><g><path d="M 278.996094 156.609375 C 269.867188 169.832031 257.289062 180.101562 242.371094 186.761719 C 232.046875 191.367188 221.273438 194.996094 210.160156 197.121094 C 202.316406 198.617188 193.089844 200.40625 184.792969 199.328125 C 186.828125 200.679688 189.195312 201.671875 191.8125 202.128906 L 270.007812 223.425781 C 270.007812 223.425781 271.699219 219.460938 273.824219 213.308594 C 275.71875 207.828125 277.953125 200.613281 279.636719 192.925781 C 280.996094 186.695312 281.902344 180.414062 282.5 174.890625 C 283.601562 164.714844 283.671875 157.101562 283.671875 157.101562 L 278.996094 156.609375" fill="#e9eaea"/></g><g><path d="M 195.152344 147.695312 C 188.765625 146.554688 181.511719 157.285156 178.953125 171.65625 C 176.390625 186.027344 179.496094 198.601562 185.882812 199.738281 C 192.269531 200.875 199.523438 190.148438 202.082031 175.773438 C 203.644531 167.011719 203.089844 158.9375 200.980469 153.695312 C 202.007812 153.683594 275.824219 161.511719 275.824219 161.511719 C 277.035156 159.792969 278.265625 158.078125 279.695312 156.539062 C 279.695312 156.539062 195.578125 147.769531 195.152344 147.695312" fill="#fff"/></g><g><path d="M 97.542969 57.488281 C 92.410156 52.117188 87.28125 46.746094 82.152344 41.378906 C 80.214844 39.351562 76.578125 40.027344 74.890625 41.972656 C 72.910156 44.257812 73.574219 47.234375 75.484375 49.234375 C 80.613281 54.605469 85.746094 59.976562 90.875 65.347656 C 92.8125 67.375 96.449219 66.695312 98.136719 64.75 C 100.117188 62.46875 99.453125 59.488281 97.542969 57.488281" fill="#84b6c8"/></g><g><path d="M 76.023438 77.265625 C 60.984375 67.8125 46.1875 57.988281 31.625 47.820312 C 26.226562 44.050781 19.511719 51.875 24.957031 55.675781 C 40.238281 66.351562 55.785156 76.640625 71.566406 86.558594 C 77.183594 90.089844 81.578125 80.757812 76.023438 77.265625" fill="#84b6c8"/></g><g><path d="M 47.8125 134.335938 C 33.839844 130.957031 19.867188 127.578125 5.894531 124.199219 C -0.566406 122.640625 -2.449219 132.773438 3.976562 134.328125 C 17.949219 137.707031 31.921875 141.085938 45.894531 144.464844 C 52.355469 146.027344 54.242188 135.890625 47.8125 134.335938" fill="#84b6c8"/></g><g><path d="M 22.039062 163.046875 C 15.429688 163.589844 16.261719 173.859375 22.878906 173.320312 L 41.628906 171.78125 C 48.238281 171.242188 47.40625 160.96875 40.785156 161.511719 L 22.039062 163.046875" fill="#84b6c8"/></g><g><path d="M 52.265625 201.914062 C 40.128906 208.015625 27.988281 214.117188 15.851562 220.21875 C 10.003906 223.160156 13.460938 232.882812 19.394531 229.898438 C 31.53125 223.796875 43.667969 217.695312 55.808594 211.59375 C 61.65625 208.652344 58.199219 198.929688 52.265625 201.914062" fill="#84b6c8"/></g><g><path d="M 57.5 223.855469 C 53.578125 226.839844 49.652344 229.824219 45.726562 232.808594 C 40.464844 236.808594 46.339844 245.28125 51.640625 241.25 C 55.5625 238.269531 59.484375 235.285156 63.410156 232.300781 C 68.671875 228.296875 62.800781 219.824219 57.5 223.855469" fill="#84b6c8"/></g><g><path d="M 466.269531 202.054688 L 455.667969 191.554688 C 454.503906 196.808594 449.90625 213.253906 446.757812 223.222656 C 443.898438 232.265625 305.171875 221.371094 294.121094 217.144531 C 283.597656 246.109375 269.320312 265.121094 265.226562 270.121094 C 269.425781 266.300781 295.25 263.753906 325.289062 262.0625 C 325.289062 262.117188 325.28125 262.179688 325.28125 262.234375 C 326.363281 262 343.386719 263.097656 345.585938 263.5 C 351.351562 264.5625 356.21875 265.996094 359.761719 267.226562 C 363.785156 268.621094 366.105469 269.746094 366.105469 269.746094 L 365.738281 260.300781 C 398.257812 259.210938 426.886719 258.890625 430.3125 258.839844 C 449.117188 258.550781 463.023438 250.640625 465.332031 239.234375 L 469.796875 217.179688 C 470.804688 212.199219 469.488281 206.988281 466.269531 202.054688" fill="#478494"/></g><g><path d="M 327.492188 335.222656 C 339.515625 329.582031 348.652344 351.804688 359.285156 354.117188 C 361.21875 352.421875 362.886719 350.320312 364.203125 347.910156 C 353.648438 343.980469 344.867188 333.390625 340.792969 323.414062 C 336.296875 325.996094 332.457031 330.039062 327.347656 331.507812 L 327.488281 335.128906 C 327.488281 335.160156 327.492188 335.1875 327.492188 335.222656" fill="#478494"/></g><g><path d="M 463.695312 196.699219 C 461.417969 193.921875 459.078125 191.648438 457.277344 190.199219 C 456.265625 189.386719 455.242188 189.597656 454.488281 190.144531 C 455.398438 194.867188 455.628906 199.789062 454.726562 204.578125 L 446.921875 241.367188 C 445.554688 247.808594 442.917969 252.976562 439.550781 257.15625 C 439.777344 258.824219 441.378906 260.085938 443.15625 259.699219 C 447.308594 258.796875 451.535156 257.5 455.265625 255.589844 C 460.964844 252.667969 465.5 248.304688 466.835938 241.703125 L 471.722656 217.582031 C 472.917969 210.433594 468.4375 202.480469 463.695312 196.699219" fill="#f03c4e"/></g><g><path d="M 459.179688 221.195312 C 456.441406 222.585938 453.53125 223.707031 450.5625 224.597656 L 446.914062 241.789062 C 445.550781 248.226562 442.910156 253.398438 439.546875 257.574219 C 439.773438 259.242188 441.371094 260.503906 443.148438 260.117188 C 447.304688 259.214844 451.53125 257.921875 455.257812 256.011719 C 457.074219 255.078125 462.042969 243.804688 463.835938 235.835938 C 464.746094 231.785156 465.15625 228.144531 465.316406 225.191406 C 465.492188 221.949219 462.078125 219.726562 459.179688 221.195312" fill="#b12123"/></g><g><path d="M 305.007812 305.40625 C 305.332031 305.015625 305.460938 304.589844 305.457031 304.175781 C 309.332031 303.976562 313.429688 302.664062 317.230469 302.269531 C 322.273438 301.75 327.320312 301.578125 332.382812 301.621094 C 332.53125 302.378906 332.644531 303.140625 332.6875 303.925781 C 332.6875 303.933594 332.691406 303.945312 332.691406 303.953125 C 324.492188 305.28125 316.164062 306.3125 308.058594 308.113281 C 306.824219 308.390625 305.71875 308.800781 304.800781 309.371094 C 304.042969 308.179688 304.082031 306.519531 305.007812 305.40625 Z M 363.742188 348.265625 L 376.152344 347.617188 C 376.09375 347.359375 376.039062 347.085938 375.984375 346.839844 C 375.5 344.710938 366.796875 347.144531 356.652344 339.773438 C 349.910156 334.4375 345.289062 326.601562 342.429688 317.625 C 341.847656 315.804688 339.519531 315.480469 336.628906 315.792969 C 332.519531 316.234375 327.273438 317.953125 324.328125 318.449219 C 319.605469 319.25 314.082031 321.308594 309.511719 319.691406 C 305.960938 319.335938 305.238281 316.804688 307.347656 312.09375 C 309.144531 311.734375 317.117188 310.386719 319.296875 310.019531 C 324.386719 309.160156 329.476562 308.304688 334.566406 307.445312 C 335.722656 307.253906 336.242188 306.085938 336.140625 305.09375 C 336.125 304.9375 335.851562 300.929688 335.492188 299.527344 C 335.277344 298.695312 333.492188 297.847656 333.054688 297.839844 C 326.972656 297.761719 310.351562 299.371094 308.097656 299.75 C 304.613281 300.335938 296.425781 300.496094 302.304688 292.710938 C 305.757812 288.140625 315.488281 287.976562 320.507812 287.636719 C 326.464844 287.230469 331.90625 287.898438 337.871094 287.800781 C 340.105469 287.765625 340.007812 283.984375 337.773438 284.019531 C 331.792969 284.117188 321.777344 283.925781 313.71875 284.878906 C 309.21875 285.410156 304.191406 287.144531 303.558594 287.449219 C 297.054688 271.6875 334.3125 274.246094 341.082031 274.71875 C 343.308594 274.875 343.195312 271.09375 340.980469 270.9375 C 338.285156 270.75 320.371094 271.414062 317.535156 270.71875 C 316.101562 270.363281 315.285156 269.503906 314.820312 268.542969 C 314.273438 267.398438 313.351562 267.613281 313.242188 268.53125 C 313.128906 269.449219 313.203125 270.300781 313.351562 271.292969 C 311.402344 271.746094 309.527344 272.351562 307.773438 273.152344 C 301.796875 275.886719 297.941406 282.648438 300.59375 289.335938 C 298.820312 290.835938 297.519531 292.859375 297.207031 295.5625 C 296.78125 299.304688 298.710938 302.71875 301.796875 303.816406 C 300.332031 306.398438 300.566406 309.800781 302.433594 312.132812 C 301.988281 313.257812 301.859375 314.628906 302.140625 316.304688 C 302.894531 320.761719 306.136719 323.480469 309.910156 324.136719 C 308.214844 330.515625 310.714844 336.464844 315.082031 341.191406 C 320.835938 347.417969 327.753906 352.691406 334.429688 357.980469 C 334.429688 357.980469 321.363281 346.003906 315.09375 336.253906 C 311.671875 330.929688 312.269531 327.453125 313.515625 324.210938 C 322.050781 323.746094 331.015625 321.128906 339.398438 319.707031 C 339.304688 319.882812 339.222656 320.078125 339.179688 320.3125 C 338.417969 324.527344 331.734375 326.597656 328.703125 327.828125 C 325.070312 329.304688 321.304688 330.300781 317.476562 330.949219 C 315.304688 331.320312 315.378906 335.105469 317.578125 334.734375 C 323.027344 333.808594 328.285156 332.296875 333.328125 329.84375 C 336.066406 328.515625 339.25 327.109375 341.113281 324.566406 C 345.53125 335.410156 353.679688 343.914062 363.742188 348.265625" fill="#e28848"/></g><g><path d="M 387.988281 543.796875 C 385.5 520.671875 379.558594 410.570312 379.761719 400.09375 C 379.847656 395.613281 380.785156 387.695312 376.042969 385.613281 C 375.792969 381.027344 375.769531 369.578125 376.15625 367.0625 C 376.476562 365 373.28125 363.066406 373.28125 363.066406 L 336.386719 362.449219 C 335 362.425781 333.820312 363.453125 333.671875 364.835938 C 333.023438 370.738281 332.484375 378.070312 332.011719 385.535156 C 328.65625 387.265625 327.925781 392.382812 327.804688 396.367188 C 327.464844 407.636719 319.058594 531.527344 326.953125 557.214844 C 331.5625 572.203125 345.367188 578.308594 358.742188 577.789062 C 374.710938 577.164062 389.671875 559.476562 387.988281 543.796875" fill="#d3d4d3"/></g><g><path d="M 778.878906 424.457031 C 751.480469 389.097656 721.339844 402.234375 674.644531 440.132812 C 640.65625 467.71875 577.773438 501.777344 531.859375 526.101562 C 531.683594 526.195312 510.449219 500.929688 490.464844 469.628906 C 481.023438 454.84375 468.214844 425.988281 459.109375 413.375 C 444.871094 393.652344 427.367188 371.816406 424.671875 369.46875 C 421.925781 367.082031 413.976562 373.664062 404.75 376.9375 C 395.523438 380.207031 385.445312 381.839844 383.347656 382.5625 C 379.511719 383.882812 373.320312 382.757812 373.242188 385.246094 C 372.507812 386.480469 382.828125 428.28125 385.0625 434.484375 C 389.445312 446.667969 455.507812 611.230469 486.820312 622.539062 C 493.375 624.910156 511.894531 623.160156 517.917969 620.511719 C 568.976562 598.058594 732.921875 509.945312 735.367188 508.898438 C 782.21875 488.816406 803.800781 467.875 778.878906 424.457031" fill="#e9eaea"/></g><g><path d="M 778.878906 424.457031 C 751.480469 389.097656 721.339844 402.234375 674.644531 440.132812 C 640.65625 467.71875 577.773438 501.777344 531.859375 526.101562 C 531.683594 526.195312 510.449219 500.929688 490.464844 469.628906 C 481.023438 454.84375 468.214844 425.988281 459.109375 413.375 C 452.492188 404.210938 445.191406 394.617188 438.980469 386.710938 C 438.785156 386.113281 438.390625 385.609375 437.863281 385.292969 C 437.828125 385.242188 437.785156 385.191406 437.746094 385.144531 C 437.722656 385.15625 437.699219 385.171875 437.675781 385.1875 C 437.359375 385.035156 437.007812 384.941406 436.621094 384.941406 L 435.101562 384.941406 C 434.492188 384.941406 433.898438 385.199219 433.441406 385.605469 C 418.816406 391.867188 403.730469 396.898438 388.296875 400.75 C 385.175781 401.53125 386.5 406.351562 389.625 405.574219 C 404.675781 401.816406 423.339844 396.980469 437.636719 390.992188 C 444.285156 399.371094 451.484375 409.570312 458.933594 419.894531 C 468.039062 432.503906 477.980469 461.941406 487.421875 476.726562 C 507.40625 508.03125 529.238281 532.550781 529.410156 532.457031 C 575.328125 508.128906 637.613281 474.816406 671.605469 447.230469 C 718.300781 409.335938 748.4375 396.195312 775.835938 431.554688 C 785.761719 448.851562 788.304688 462.578125 784.8125 474.109375 C 792.101562 461.183594 790.925781 445.445312 778.878906 424.457031" fill="#fff"/></g><g><path d="M 726.441406 173.199219 C 730.644531 178.1875 730.792969 186.183594 725.636719 191.015625 C 728.742188 185.3125 728.800781 178.753906 726.441406 173.199219 Z M 726.386719 197.539062 C 726.261719 197.324219 726.132812 197.109375 726.003906 196.894531 C 732.246094 192.984375 736.09375 185.671875 734.621094 178.125 C 733.078125 170.242188 726.160156 164.785156 718.492188 163.886719 C 718.453125 163.863281 718.417969 163.835938 718.378906 163.8125 C 716.332031 154.113281 713.425781 144.210938 707.953125 135.164062 C 685.792969 105.261719 653.011719 82.476562 593.410156 75.6875 C 586.066406 74.851562 529.566406 69.078125 497.3125 93.796875 C 478.996094 107.828125 470.582031 127.542969 474.691406 150.351562 C 475.253906 153.480469 477.929688 155.453125 477.359375 152.289062 C 473.445312 130.546875 482.875 109.125 501.359375 97.105469 C 503.863281 95.480469 506.46875 94.042969 509.136719 92.730469 C 489.386719 106.171875 477.328125 125.992188 481.585938 149.546875 C 482.375 153.902344 485.035156 158.839844 488.855469 163.996094 C 489.84375 165.328125 488.570312 155.855469 491.582031 146.679688 C 493.957031 139.449219 500.691406 131.984375 501.65625 133.058594 C 502.636719 134.152344 498.070312 142.261719 497.957031 151.703125 C 497.761719 168.339844 506.035156 181.976562 515.761719 192.222656 C 522.730469 199.566406 530.4375 205.164062 536.316406 208.890625 L 539.195312 305.558594 C 539.664062 321.226562 539.550781 337.039062 540.707031 352.671875 C 541.484375 363.183594 544.035156 373.800781 553.234375 380.007812 C 555.898438 381.804688 558.148438 377.335938 555.511719 375.554688 C 545.242188 368.625 545.636719 353.828125 545.308594 342.835938 C 544.855469 327.679688 544.40625 312.527344 543.953125 297.371094 C 543.105469 268.894531 542.257812 240.417969 541.40625 211.941406 C 544.1875 213.507812 545.90625 214.316406 545.90625 214.316406 L 554.203125 362.777344 C 554.703125 371.691406 562.128906 378.71875 571.054688 378.53125 C 573.011719 378.492188 574.980469 378.355469 576.949219 378.128906 L 670.304688 367.265625 C 670.304688 367.265625 714.179688 391.898438 744.988281 343.457031 C 755.652344 310.484375 758.289062 271.070312 741.019531 227.355469 C 761.03125 264.789062 764.433594 310.976562 748.242188 350.59375 C 747.03125 353.558594 751.472656 355.855469 752.691406 352.875 C 773.820312 301.1875 763.128906 239.351562 726.386719 197.539062" fill="#855434"/></g><g><path d="M 735.070312 218.355469 C 733.664062 213.910156 731.835938 209.660156 729.648438 205.550781 C 730.476562 205.070312 731.363281 204.789062 732.332031 204.78125 C 730.304688 202.148438 728.191406 199.574219 725.976562 197.078125 C 725.988281 197 725.992188 196.972656 726.007812 196.894531 C 727.214844 196.136719 728.335938 195.246094 729.34375 194.257812 C 717.0625 200.789062 703.570312 205.132812 689.617188 205.460938 C 674.761719 205.808594 660.925781 201.15625 649.371094 192.535156 C 656.828125 195.164062 664.710938 196.40625 672.777344 196.222656 C 675.996094 196.148438 675.714844 191.15625 672.5 191.230469 C 661.074219 191.492188 650.207031 188.601562 640.378906 182.847656 C 640.609375 182.492188 640.992188 182.226562 641.515625 182.183594 C 643.605469 182.007812 645.648438 181.65625 647.671875 181.214844 C 652.441406 182.351562 657.242188 183.011719 661.691406 183.277344 C 664.898438 183.46875 664.59375 178.476562 661.410156 178.285156 C 649.0625 177.550781 633.316406 173.511719 625.324219 163.648438 C 628.40625 165.222656 631.617188 166.570312 634.964844 167.667969 C 638.023438 168.671875 639.050781 163.773438 636.023438 162.78125 C 630.644531 161.019531 625.625 158.503906 621 155.320312 C 620.550781 153.679688 620.269531 151.933594 620.1875 150.074219 C 624.683594 152.820312 629.324219 154.707031 634.21875 155.511719 C 638.960938 158.011719 644.027344 159.960938 649.335938 161.269531 C 652.46875 162.039062 653.515625 157.148438 650.394531 156.378906 C 637.671875 153.242188 626.382812 146.066406 618.074219 136.242188 C 617.691406 135.71875 617.320312 135.1875 616.941406 134.660156 C 620.46875 136.148438 624.078125 137.441406 627.78125 138.527344 C 630.871094 139.433594 631.910156 134.539062 628.839844 133.636719 C 622.71875 131.84375 616.902344 129.433594 611.316406 126.453125 C 610.046875 124.183594 608.898438 121.832031 607.925781 119.386719 C 607.902344 119.324219 607.867188 119.277344 607.84375 119.222656 C 608.046875 119.09375 608.277344 119.015625 608.53125 119.023438 C 631.5625 119.878906 645.921875 138.699219 661.964844 152.574219 C 670.078125 159.59375 679.171875 165.078125 689.984375 166.460938 C 699.914062 167.726562 709.570312 164.839844 719.328125 164.015625 C 719.039062 163.96875 718.75 163.914062 718.457031 163.882812 C 718.425781 163.855469 718.40625 163.839844 718.378906 163.8125 C 716.332031 154.113281 713.425781 144.210938 707.953125 135.164062 C 687.433594 107.476562 657.792969 85.90625 606.210938 77.472656 L 606.476562 82.257812 C 596.195312 80.988281 585.964844 81.816406 575.957031 84.765625 C 572.871094 85.675781 574.464844 90.417969 577.554688 89.507812 C 587.136719 86.683594 596.910156 85.972656 606.761719 87.347656 L 607.148438 94.300781 C 597.0625 94.558594 587.425781 97.597656 578.894531 103.15625 C 576.199219 104.910156 578.949219 109.085938 581.652344 107.324219 C 589.492188 102.222656 598.214844 99.546875 607.429688 99.289062 L 607.851562 106.851562 C 607.851562 106.851562 591.117188 107.28125 584.363281 115.273438 C 571.835938 130.101562 573.027344 151.984375 573.285156 170.234375 C 573.292969 170.828125 572.921875 171.613281 572.265625 171.738281 C 553.082031 175.417969 531.523438 160.964844 535.222656 140.625 C 527.519531 145.617188 522.699219 155.839844 521.105469 164.40625 C 520.894531 165.558594 519.480469 165.902344 518.640625 165.210938 C 516.316406 163.285156 514.320312 161.039062 512.707031 158.582031 C 510.050781 165.898438 508.613281 173.625 507.066406 181.292969 C 509.660156 185.277344 512.636719 188.929688 515.761719 192.222656 C 522.730469 199.566406 530.4375 205.164062 536.316406 208.890625 L 539.195312 305.558594 C 539.664062 321.226562 539.550781 337.039062 540.707031 352.671875 C 541.484375 363.183594 544.035156 373.800781 553.234375 380.007812 C 555.898438 381.804688 558.148438 377.335938 555.511719 375.554688 C 545.242188 368.625 545.636719 353.828125 545.308594 342.835938 C 544.855469 327.679688 544.40625 312.527344 543.953125 297.371094 C 543.105469 268.894531 542.257812 240.417969 541.40625 211.941406 C 544.1875 213.507812 545.90625 214.316406 545.90625 214.316406 L 554.203125 362.777344 C 554.703125 371.691406 562.128906 378.722656 571.054688 378.53125 C 573.011719 378.492188 574.980469 378.355469 576.949219 378.128906 L 669.644531 367.34375 C 676.300781 350.117188 681.207031 333.09375 681.042969 314.277344 C 680.886719 296.355469 676.597656 278.8125 675.535156 260.960938 C 675.128906 254.148438 674.960938 246.949219 676.652344 240.273438 C 677.132812 238.398438 677.824219 236.082031 679.222656 234.539062 C 680.328125 242.382812 681.429688 250.222656 682.535156 258.0625 C 682.980469 261.222656 687.976562 260.972656 687.527344 257.78125 C 686.363281 249.515625 685.199219 241.246094 684.035156 232.980469 C 686.046875 233.464844 687.875 235.160156 689.414062 237.160156 C 695.992188 251.117188 698.898438 267.582031 700.960938 282.511719 C 701.398438 285.675781 706.394531 285.425781 705.953125 282.230469 C 704.378906 270.832031 702.320312 258.734375 698.6875 247.367188 C 698.570312 245.257812 698.464844 243.160156 698.433594 241.101562 C 698.339844 234.304688 698.230469 226.199219 703.679688 221.253906 C 704.527344 226.992188 705.371094 232.726562 706.21875 238.464844 C 706.683594 241.621094 711.679688 241.371094 711.210938 238.183594 C 710.253906 231.691406 709.296875 225.195312 708.335938 218.699219 C 711.53125 218.105469 714.3125 220.007812 716.546875 223.035156 C 718.785156 234.429688 720.738281 245.878906 722.386719 257.375 C 722.84375 260.535156 727.839844 260.285156 727.382812 257.097656 C 725.765625 245.832031 723.851562 234.617188 721.679688 223.445312 C 722.648438 218.203125 724.046875 213.054688 726.082031 209.496094 C 727.777344 212.863281 729.191406 216.34375 730.332031 219.953125 C 731.300781 223.015625 736.046875 221.429688 735.070312 218.355469" fill="#6f4324"/></g><g><path d="M 584.757812 91.394531 C 572.246094 95.503906 562.058594 104.304688 555.859375 115.441406 C 556.921875 110.429688 558.46875 105.507812 560.515625 100.710938 C 561.355469 98.746094 559.664062 96.496094 557.492188 97.203125 C 547.96875 100.304688 539.371094 105.445312 532.257812 112.273438 C 535.265625 107.136719 539.230469 102.59375 544.058594 98.84375 C 545.859375 97.441406 545.195312 93.949219 542.535156 94.261719 C 528.34375 95.925781 514.980469 101.429688 503.863281 110.019531 C 508.433594 104.199219 513.660156 98.890625 519.503906 94.195312 C 521.988281 92.195312 519.257812 88.003906 516.742188 90.023438 C 505.5 99.0625 496.332031 110.105469 489.636719 122.828125 C 489.300781 123.058594 489.011719 123.40625 488.824219 123.921875 C 488.613281 124.511719 488.398438 125.101562 488.1875 125.6875 C 487.296875 128.144531 489.996094 130.160156 491.753906 129.007812 C 492.207031 128.902344 492.648438 128.632812 493.023438 128.128906 C 503.34375 114.3125 518.097656 104.605469 534.722656 100.691406 C 528.820312 107.058594 524.617188 114.707031 522.363281 123.320312 C 521.886719 125.136719 523.347656 126.238281 524.808594 126.238281 C 525.683594 126.714844 526.746094 126.648438 527.5 125.5625 C 534.207031 115.867188 543.246094 108.4375 553.957031 103.871094 C 550.132812 114.765625 548.550781 126.179688 549.351562 137.800781 C 549.574219 141.085938 554.164062 140.664062 554.34375 137.523438 C 555.398438 118.699219 568.515625 101.988281 586.355469 96.136719 C 589.410156 95.132812 587.824219 90.390625 584.757812 91.394531" fill="#a47444"/></g><g><path d="M 671.875 174.179688 C 681.648438 178.402344 691.929688 180.097656 702.3125 179.289062 C 696.964844 182.972656 690.800781 185.214844 684.128906 185.84375 C 681.242188 186.117188 681.0625 189.980469 683.738281 190.785156 C 696.433594 194.597656 709.925781 192.578125 721.03125 185.378906 C 723.730469 183.628906 720.976562 179.453125 718.269531 181.210938 C 711.847656 185.371094 704.648438 187.523438 697.300781 187.644531 C 702.886719 185.324219 707.945312 181.847656 712.265625 177.296875 C 714.144531 175.316406 711.851562 172.777344 709.605469 173.261719 C 697.640625 175.835938 685.375 174.578125 674.152344 169.726562 C 671.207031 168.453125 668.917969 172.902344 671.875 174.179688" fill="#a47444"/></g><g><path d="M 729.429688 277.636719 C 729.148438 274.4375 724.152344 274.699219 724.4375 277.914062 C 726.023438 296.015625 724.316406 314.148438 719.394531 331.515625 C 719.726562 312.207031 718.722656 292.871094 712.183594 274.480469 C 711.257812 271.875 707.09375 272.546875 707.316406 275.421875 C 708.996094 296.820312 708.191406 318.890625 700.496094 338.925781 C 700.96875 324.414062 699.132812 309.964844 694.980469 295.914062 C 694.148438 293.089844 690.148438 294.144531 690.113281 296.851562 C 689.878906 317.265625 689.476562 338.199219 681.070312 357.183594 C 679.769531 360.121094 684.21875 362.410156 685.519531 359.464844 C 691.441406 346.09375 693.617188 331.863281 694.488281 317.472656 C 695.996094 328.878906 695.988281 340.449219 694.429688 351.964844 C 694.054688 354.738281 697.65625 356.175781 699.097656 353.632812 C 708.5625 336.957031 712.277344 318.261719 712.933594 299.367188 C 715.101562 315.40625 714.542969 331.839844 713.902344 348.039062 C 713.804688 350.480469 717.710938 351.289062 718.621094 349.039062 C 727.824219 326.371094 731.566406 302.015625 729.429688 277.636719" fill="#a47444"/></g><g><path d="M 738.179688 243.898438 C 737.4375 240.773438 732.699219 242.382812 733.4375 245.496094 C 740.378906 274.78125 739.660156 305.304688 731.546875 334.277344 C 730.675781 337.382812 735.570312 338.421875 736.433594 335.335938 C 744.796875 305.476562 745.324219 274.058594 738.179688 243.898438" fill="#a47444"/></g><g><path d="M 665.203125 258.957031 C 666.675781 250.273438 663.277344 240.910156 656.085938 235.648438 C 649.507812 230.835938 642.164062 231.339844 635.210938 233.851562 C 635.230469 221.144531 636.566406 207.449219 635.71875 194.722656 C 635.582031 192.628906 612.527344 184.773438 598.140625 167.824219 C 587.519531 155.308594 584.925781 132.261719 582.722656 131.707031 C 580.390625 131.117188 575.316406 148.476562 576.632812 164.449219 C 569.960938 161.652344 568.058594 153.183594 567.691406 145.183594 C 567.300781 136.707031 568.628906 128.757812 567.835938 128.636719 C 565.539062 128.277344 563.332031 127.992188 561.210938 127.777344 C 559.9375 127.644531 551.914062 161.234375 550.71875 163.269531 C 550.261719 164.042969 545.296875 153.582031 543.964844 142.902344 C 543.125 136.152344 545.804688 127.394531 545.4375 127.421875 C 541.542969 127.695312 531.261719 131.601562 526.582031 141.6875 C 523.003906 149.410156 520.132812 156.660156 518.933594 157.183594 C 517.527344 157.796875 515.941406 151.246094 516.96875 145.5 C 517.996094 139.753906 521.632812 134.808594 520.625 135.5625 C 516.828125 138.394531 514.332031 141.546875 512.703125 144.316406 C 510.21875 148.53125 498.921875 179.484375 486.675781 209.113281 C 472.628906 243.089844 472.273438 272.773438 478.675781 296.078125 C 485.167969 319.703125 507.398438 367.785156 579.183594 347.402344 C 580.8125 346.9375 590.613281 373.308594 592.824219 388.070312 C 593.1875 390.492188 587.824219 392.0625 587.707031 393.691406 C 593.347656 406.265625 604.894531 419.207031 611.085938 431.523438 C 618.882812 419.546875 630.636719 410.679688 641.394531 401.492188 C 652.605469 391.921875 666.449219 380.464844 670.277344 365.921875 C 665.164062 364.078125 653.558594 358.296875 645.394531 348.789062 C 636.457031 338.382812 631.101562 323.972656 629.695312 316.480469 C 633.246094 313.695312 645.066406 285.382812 643.941406 283.644531 C 645.414062 283.109375 646.851562 282.457031 648.226562 281.703125 C 656.628906 277.109375 663.578125 268.519531 665.203125 258.957031" fill="#f5b47a"/></g><g><path d="M 665.203125 258.957031 C 666.675781 250.273438 663.277344 240.910156 656.085938 235.648438 C 649.507812 230.835938 642.164062 231.339844 635.210938 233.851562 C 635.230469 221.144531 636.566406 207.449219 635.71875 194.722656 C 635.582031 192.628906 612.527344 184.773438 598.140625 167.824219 C 587.519531 155.308594 584.925781 132.261719 582.722656 131.707031 C 580.390625 131.117188 575.316406 148.476562 576.632812 164.449219 C 569.960938 161.652344 568.058594 153.183594 567.691406 145.183594 C 567.300781 136.707031 568.628906 128.757812 567.835938 128.636719 C 565.539062 128.277344 563.332031 127.992188 561.210938 127.777344 C 559.9375 127.644531 551.914062 161.234375 550.71875 163.269531 C 550.261719 164.042969 545.296875 153.582031 543.964844 142.902344 C 543.125 136.152344 545.804688 127.394531 545.4375 127.421875 C 541.542969 127.695312 531.261719 131.601562 526.582031 141.6875 C 523.003906 149.410156 520.132812 156.660156 518.933594 157.183594 C 517.527344 157.796875 515.941406 151.246094 516.96875 145.5 C 517.996094 139.753906 521.632812 134.808594 520.625 135.5625 C 516.828125 138.394531 514.332031 141.546875 512.703125 144.316406 C 511.683594 146.042969 509.1875 152.261719 505.75 161.035156 C 510.855469 158.285156 515.183594 162.304688 521.066406 163.199219 C 526.527344 164.03125 532 161.257812 537.386719 162.097656 C 542.277344 162.855469 546.246094 167.226562 551.121094 168.429688 C 557.425781 169.980469 561.199219 164.257812 567.300781 165.53125 C 572.105469 166.53125 576.078125 170.417969 579.367188 173.8125 C 583.84375 178.433594 587.726562 183.589844 592.167969 188.238281 C 596.074219 192.332031 600.664062 195.628906 604.402344 199.914062 C 608.066406 204.121094 611.125 208.792969 613.488281 213.847656 C 623.175781 234.558594 620.019531 258.804688 611.46875 279.316406 C 602.351562 301.171875 586.984375 319.289062 567.421875 332.5 C 555.402344 340.613281 540.109375 348.265625 525.070312 349.191406 C 538.902344 353.445312 556.585938 353.816406 579.183594 347.402344 C 580.8125 346.9375 590.613281 373.308594 592.824219 388.070312 C 593.1875 390.492188 587.824219 392.0625 587.707031 393.691406 C 593.347656 406.265625 604.894531 419.207031 611.085938 431.523438 C 618.882812 419.546875 630.636719 410.679688 641.394531 401.492188 C 652.605469 391.921875 666.449219 380.464844 670.277344 365.921875 C 665.164062 364.078125 653.558594 358.296875 645.394531 348.789062 C 636.457031 338.382812 631.101562 323.972656 629.695312 316.480469 C 633.246094 313.695312 645.066406 285.382812 643.941406 283.644531 C 645.414062 283.109375 646.851562 282.457031 648.226562 281.703125 C 656.628906 277.109375 663.578125 268.519531 665.203125 258.957031" fill="#efa269"/></g><g><path d="M 496.949219 330.675781 C 497.632812 331.441406 498.347656 332.195312 499.078125 332.9375 C 498.507812 332.125 497.820312 331.359375 496.949219 330.675781" fill="#efa269"/></g><g><path d="M 526.355469 212.65625 C 524.46875 215.699219 522.308594 218.527344 519.785156 221.070312 C 517.863281 223.003906 514.835938 224.53125 513.175781 226.648438 C 512.457031 227.5625 512.203125 228.347656 512.296875 229.488281 C 512.367188 230.375 513.804688 232.605469 513.933594 232.941406 C 514.585938 234.628906 514.792969 236.390625 514.851562 238.191406 C 514.933594 240.679688 518.796875 240.464844 518.714844 237.972656 C 518.640625 235.609375 518.328125 233.199219 517.308594 231.03125 C 517.234375 230.871094 516.171875 229.203125 516.1875 229.125 C 516.253906 228.769531 519.605469 226.453125 519.960938 226.164062 C 526.738281 220.621094 527.660156 210.554688 526.355469 212.65625" fill="#dc8349"/></g><g><path d="M 602.832031 329.503906 C 596.019531 335.425781 588.605469 340.535156 580.710938 344.910156 C 577.898438 346.46875 580.667969 350.632812 583.472656 349.078125 C 591.761719 344.484375 599.410156 339.050781 606.558594 332.835938 C 608.984375 330.726562 605.234375 327.417969 602.832031 329.503906" fill="#dc8349"/></g><g><path d="M 646.53125 257.195312 C 643.40625 261.382812 639.796875 265.265625 636.429688 269.257812 C 634.355469 271.714844 638.074219 275.054688 640.15625 272.589844 C 645.546875 266.199219 657.222656 256.609375 654.039062 246.984375 C 652.925781 243.621094 649.941406 241.242188 646.359375 241.214844 C 641.679688 241.179688 638.308594 244.511719 635.617188 247.933594 C 634.570312 249.261719 635.113281 250.8125 636.152344 251.617188 C 636.601562 252.964844 637.050781 254.3125 637.5 255.660156 C 638.519531 258.707031 643.261719 257.125 642.242188 254.0625 C 641.738281 252.558594 641.234375 251.054688 640.734375 249.550781 C 640.867188 249.398438 640.988281 249.242188 641.128906 249.09375 C 643.285156 246.785156 644.015625 246.316406 646.917969 247.558594 C 649.808594 248.796875 649.84375 249.8125 649.023438 252.730469 C 648.558594 254.382812 647.546875 255.84375 646.53125 257.195312" fill="#dc8349"/></g><g><path d="M 666.019531 365.824219 C 656.011719 393.125 624.125 403.449219 610.960938 428.46875 C 609.3125 424.019531 607.046875 419.835938 604.464844 415.78125 C 602.53125 412.742188 600.464844 409.796875 598.453125 406.8125 C 597.742188 405.757812 590.882812 395.148438 592.832031 394.925781 C 596.015625 394.5625 595.757812 389.566406 592.550781 389.933594 C 582.1875 391.117188 589.96875 403.0625 592.898438 407.5 C 598.972656 416.699219 605.820312 425.460938 608.09375 436.496094 C 608.65625 439.226562 612.210938 438.21875 612.90625 436.230469 C 623.15625 406.875 659.714844 397.441406 670.472656 368.105469 C 671.570312 365.117188 667.128906 362.808594 666.019531 365.824219" fill="#dc8349"/></g><g><path d="M 519.726562 298.984375 C 516.074219 299.523438 512.640625 299.015625 509.347656 297.324219 C 506.476562 295.851562 504.203125 300.308594 507.066406 301.777344 C 511.078125 303.835938 515.539062 304.632812 520.007812 303.976562 C 523.164062 303.511719 522.914062 298.515625 519.726562 298.984375" fill="#dc8349"/></g><g><path d="M 499.644531 252.816406 C 499.648438 252.824219 499.648438 252.835938 499.648438 252.84375 C 500.351562 258.339844 501.71875 276.519531 503.972656 284.792969 C 506.453125 293.890625 517.492188 296.234375 527.6875 285.425781 C 535.90625 276.714844 546.496094 252.378906 546.359375 250.203125 C 518.609375 258.089844 499.644531 252.816406 499.644531 252.816406" fill="#f03c4e"/></g><g><path d="M 513.746094 279.933594 C 518.992188 274.546875 526.363281 276.4375 532.695312 277.9375 C 539.523438 267.1875 546.125 251.617188 546.011719 249.894531 C 518.265625 257.78125 499.300781 252.507812 499.300781 252.507812 C 499.304688 252.515625 499.304688 252.527344 499.304688 252.535156 C 500.007812 258.03125 501.371094 276.210938 503.628906 284.484375 C 505.207031 290.269531 510.246094 293.316406 516.332031 291.992188 C 511.429688 290.375 509.46875 284.328125 513.746094 279.933594" fill="#b12123"/></g><g><path d="M 506.285156 187.066406 C 504.90625 186.792969 503.503906 187.160156 502.203125 188 C 501.820312 187.417969 501.585938 186.632812 501.640625 186.078125 C 501.773438 184.738281 501.152344 183.414062 499.726562 183.105469 C 498.523438 182.847656 496.886719 183.671875 496.753906 185.023438 C 496.5 187.578125 497.179688 189.824219 498.839844 191.738281 C 498.039062 193.132812 497.414062 194.769531 497.058594 196.566406 C 495.859375 202.589844 498.042969 208.101562 501.941406 208.878906 C 505.839844 209.65625 509.96875 205.402344 511.171875 199.378906 C 512.371094 193.355469 510.183594 187.84375 506.285156 187.066406" fill="#6f4324"/></g><g><path d="M 583.011719 200.542969 C 582.585938 199.277344 581.117188 198.511719 579.84375 198.96875 C 578.546875 199.4375 577.246094 199.90625 575.945312 200.375 C 574.902344 197.824219 573.074219 195.96875 570.703125 195.414062 C 565.957031 194.300781 560.835938 198.8125 559.269531 205.492188 C 557.699219 212.175781 560.277344 218.496094 565.023438 219.609375 C 569.773438 220.726562 574.894531 216.210938 576.460938 209.527344 C 576.796875 208.101562 576.933594 206.691406 576.90625 205.34375 C 578.417969 204.800781 579.929688 204.253906 581.4375 203.710938 C 582.710938 203.253906 583.449219 201.839844 583.011719 200.542969" fill="#6f4324"/></g><g><path d="M 514.109375 162.730469 C 512.164062 162.144531 509.980469 162.269531 508.117188 163.074219 C 506.878906 163.613281 506.089844 164.886719 506.542969 166.242188 C 506.945312 167.441406 508.46875 168.355469 509.710938 167.816406 C 510.914062 167.296875 511.796875 167.242188 513.050781 167.617188 C 514.34375 168.007812 515.757812 166.949219 516.023438 165.703125 C 516.328125 164.292969 515.40625 163.121094 514.109375 162.730469" fill="#6f4324"/></g><g><path d="M 564.808594 172.945312 C 569.34375 173.535156 573.425781 175.238281 576.945312 178.175781 C 579.410156 180.238281 582.753906 176.515625 580.277344 174.449219 C 576.132812 170.988281 571.230469 168.753906 565.867188 168.058594 C 562.695312 167.644531 561.617188 172.53125 564.808594 172.945312" fill="#6f4324"/></g></g></svg>